<svg width="56" height="56" viewBox="0 0 56 56" fill="none" xmlns="http://www.w3.org/2000/svg">
<path d="M9.16999 38.8033C8.72666 38.8033 8.28333 38.64 7.93333 38.29C7.25666 37.6133 7.25666 36.4933 7.93333 35.8167L35.8167 7.93334C36.4933 7.25668 37.6133 7.25668 38.29 7.93334C38.9667 8.61001 38.9667 9.73001 38.29 10.4067L10.4067 38.3133C10.08 38.64 9.61333 38.8033 9.16999 38.8033Z" fill="#939393"/>
<path d="M25.9 44.4033C25.4567 44.4033 25.0133 44.24 24.6633 43.89C23.9867 43.2133 23.9867 42.0933 24.6633 41.4166L27.4633 38.6166C28.14 37.94 29.26 37.94 29.9367 38.6166C30.6133 39.2933 30.6133 40.4133 29.9367 41.09L27.1367 43.89C26.81 44.2166 26.3667 44.4033 25.9 44.4033Z" fill="#939393"/>
<path d="M32.1767 38.1267C31.7333 38.1267 31.29 37.9633 30.94 37.6133C30.2633 36.9367 30.2633 35.8167 30.94 35.14L36.5167 29.5633C37.1933 28.8867 38.3133 28.8867 38.99 29.5633C39.6667 30.24 39.6667 31.36 38.99 32.0367L33.4133 37.6133C33.0867 37.94 32.62 38.1267 32.1767 38.1267Z" fill="#939393"/>
<path d="M25.9 53.0834C23.6133 53.0834 21.3267 51.6834 18.55 48.9067L7.09333 37.45C1.51666 31.8734 1.53999 28.28 7.16333 22.6567L22.6567 7.16336C28.28 1.54002 31.8733 1.51669 37.45 7.09336L48.9067 18.55C54.4833 24.1267 54.46 27.72 48.8367 33.3434L33.3433 48.8367C30.52 51.66 28.21 53.0834 25.9 53.0834ZM30.1 6.41669C28.8867 6.41669 27.3467 7.42002 25.13 9.63669L9.63666 25.13C7.41999 27.3467 6.41666 28.8867 6.41666 30.0767C6.41666 31.29 7.34999 32.76 9.56666 34.9767L21.0233 46.4334C23.24 48.65 24.6867 49.5834 25.9 49.5834C25.9 49.5834 25.9 49.5834 25.9233 49.5834C27.1367 49.5834 28.6533 48.58 30.87 46.3634L46.3633 30.87C48.58 28.6534 49.5833 27.1134 49.5833 25.9234C49.5833 24.71 48.65 23.24 46.4333 21.0234L34.9767 9.56669C32.7833 7.35002 31.3133 6.41669 30.1 6.41669Z" fill="#939393"/>
<path d="M51.3333 53.0833H4.66667C3.71001 53.0833 2.91667 52.29 2.91667 51.3333C2.91667 50.3766 3.71001 49.5833 4.66667 49.5833H51.3333C52.29 49.5833 53.0833 50.3766 53.0833 51.3333C53.0833 52.29 52.29 53.0833 51.3333 53.0833Z" fill="#939393"/>
</svg>
