<svg width="569" height="381" fill="none" xmlns="http://www.w3.org/2000/svg"><path d="M.677 14.496C.677 6.962 6.785.854 14.32.854H554.9c7.535 0 13.643 6.108 13.643 13.642v273.701H.677v-273.7z" fill="#fff"/><path d="M181.408 63.781h-2.878l5.24-14.883h3.328l5.247 14.883h-2.878l-3.975-11.83h-.116l-3.968 11.83zm.094-5.835h7.849v2.165h-7.849v-2.165zm13.591 5.835l-3.154-11.162h2.682l1.962 7.848h.102l2.005-7.848h2.653l2.006 7.805h.109l1.933-7.805h2.688l-3.161 11.162h-2.739l-2.093-7.543h-.153l-2.093 7.543h-2.747zm18.035.225c-.707 0-1.344-.126-1.911-.378a3.116 3.116 0 01-1.337-1.133c-.325-.5-.487-1.114-.487-1.846 0-.63.116-1.15.349-1.562.232-.412.549-.742.952-.989a4.805 4.805 0 011.358-.56c.509-.13 1.035-.224 1.577-.283a62.078 62.078 0 001.592-.181c.407-.058.702-.146.886-.262.189-.121.284-.308.284-.56v-.043c0-.548-.162-.972-.487-1.272-.325-.3-.792-.45-1.403-.45-.644 0-1.155.14-1.533.421-.373.281-.625.613-.756.996l-2.456-.35c.194-.677.514-1.244.959-1.7.446-.46.991-.804 1.635-1.032a6.261 6.261 0 012.137-.348c.538 0 1.073.063 1.606.189.533.126 1.02.334 1.461.625.44.285.794.675 1.06 1.17.272.494.407 1.111.407 1.853v7.47h-2.528v-1.533h-.088c-.16.31-.385.6-.675.872a3.252 3.252 0 01-1.083.647c-.431.16-.938.24-1.519.24zm.683-1.933c.528 0 .986-.104 1.374-.312a2.31 2.31 0 00.893-.843c.213-.349.32-.73.32-1.141v-1.315c-.082.067-.223.13-.421.189a5.997 5.997 0 01-.654.152c-.243.044-.482.083-.72.116l-.618.088c-.392.053-.743.14-1.053.261a1.74 1.74 0 00-.734.509c-.179.213-.269.49-.269.828 0 .485.177.85.53 1.098.354.247.805.37 1.352.37zm7.856 1.708V52.619h2.63v11.162h-2.63zm1.322-12.746c-.416 0-.775-.138-1.075-.414a1.333 1.333 0 01-.451-1.01c0-.398.15-.734.451-1.01.3-.282.659-.422 1.075-.422.422 0 .78.14 1.076.421.3.277.45.613.45 1.01 0 .393-.15.73-.45 1.01a1.519 1.519 0 01-1.076.415zm9.587 1.584v2.035h-6.417v-2.035h6.417zm-4.832-2.674h2.63v10.479c0 .353.053.625.16.814.111.184.257.31.436.377.179.068.378.102.596.102.165 0 .315-.012.45-.036a3.89 3.89 0 00.32-.066l.444 2.057a5.934 5.934 0 01-.604.16 4.928 4.928 0 01-.944.102c-.659.019-1.253-.08-1.781-.298a2.77 2.77 0 01-1.257-1.032c-.305-.465-.455-1.047-.45-1.744V49.945zm7.032 13.836V52.619h2.631v11.162h-2.631zm1.323-12.746c-.417 0-.775-.138-1.076-.414-.3-.281-.45-.618-.45-1.01 0-.398.15-.734.45-1.01a1.521 1.521 0 011.076-.422c.421 0 .78.14 1.075.421.301.277.451.613.451 1.01 0 .393-.15.73-.451 1.01a1.517 1.517 0 01-1.075.415zm6.643 6.206v6.54h-2.63V52.619h2.514v1.897h.131a3.19 3.19 0 011.228-1.49c.567-.368 1.267-.552 2.1-.552.771 0 1.441.164 2.013.494.577.33 1.022.806 1.337 1.431.32.625.477 1.384.473 2.275v7.107h-2.631v-6.7c0-.746-.194-1.33-.581-1.751-.383-.422-.914-.633-1.592-.633-.46 0-.869.102-1.228.306a2.118 2.118 0 00-.836.864c-.198.378-.298.836-.298 1.374zm14.694 10.958c-.945 0-1.756-.128-2.434-.385-.679-.252-1.224-.59-1.635-1.017a3.523 3.523 0 01-.858-1.417l2.369-.574c.107.218.262.433.465.646.204.218.477.398.821.538.349.145.788.218 1.316.218.746 0 1.363-.181 1.853-.545.489-.358.734-.95.734-1.773v-2.115h-.131c-.136.272-.334.55-.596.836-.257.286-.598.526-1.025.72-.421.193-.952.29-1.591.29-.858 0-1.635-.2-2.333-.603-.692-.407-1.245-1.013-1.657-1.817-.407-.809-.61-1.821-.61-3.037 0-1.226.203-2.26.61-3.103.412-.848.967-1.49 1.665-1.926a4.274 4.274 0 012.332-.661c.654 0 1.192.111 1.613.334.427.218.766.482 1.018.792.252.305.443.593.574.865h.145v-1.846h2.595v11.344c0 .954-.228 1.744-.684 2.369-.455.625-1.077 1.092-1.867 1.402-.79.31-1.686.465-2.689.465zm.022-6.642c.557 0 1.032-.135 1.424-.407.393-.27.691-.66.894-1.17.204-.508.305-1.119.305-1.83 0-.703-.101-1.319-.305-1.847-.199-.528-.494-.937-.886-1.228-.388-.295-.865-.443-1.432-.443-.586 0-1.076.153-1.468.458-.392.305-.688.724-.887 1.257-.198.528-.297 1.129-.297 1.802 0 .683.099 1.282.297 1.795.204.509.502.906.894 1.192.398.28.884.421 1.461.421zm14.625 6.41a5.32 5.32 0 01-.996-.088c-.3-.053-.54-.116-.719-.188l.61-2.05c.383.112.724.165 1.025.16.3-.005.564-.1.792-.283.232-.18.428-.48.588-.901l.226-.604-4.048-11.394h2.79l2.573 8.43h.116l2.58-8.43h2.798l-4.469 12.514a5.026 5.026 0 01-.829 1.518 3.361 3.361 0 01-1.264.974c-.494.228-1.085.342-1.773.342zm14.644-3.968c-1.09 0-2.035-.24-2.834-.72a4.888 4.888 0 01-1.86-2.012c-.436-.863-.654-1.87-.654-3.023s.218-2.163.654-3.03a4.878 4.878 0 011.86-2.02c.799-.48 1.744-.72 2.834-.72s2.035.24 2.834.72a4.814 4.814 0 011.853 2.02c.441.867.662 1.877.662 3.03 0 1.153-.221 2.16-.662 3.023a4.833 4.833 0 01-1.853 2.013c-.799.48-1.744.719-2.834.719zm.015-2.107c.591 0 1.085-.163 1.482-.487.397-.33.693-.77.887-1.323a5.438 5.438 0 00.298-1.846c0-.683-.1-1.3-.298-1.853-.194-.557-.49-1-.887-1.33-.397-.329-.891-.494-1.482-.494-.606 0-1.11.165-1.512.494-.397.33-.695.773-.894 1.33a5.591 5.591 0 00-.29 1.853c0 .679.097 1.294.29 1.846.199.552.497.993.894 1.323.402.324.906.487 1.512.487zm14.681-2.805v-6.468h2.63v11.162h-2.55v-1.984h-.117a3.359 3.359 0 01-1.242 1.534c-.572.397-1.277.595-2.115.595-.731 0-1.378-.162-1.94-.486-.557-.33-.993-.807-1.308-1.432-.315-.63-.473-1.39-.473-2.282V52.62h2.631v6.7c0 .707.194 1.27.581 1.686.388.417.897.625 1.526.625.388 0 .763-.095 1.127-.283.363-.19.661-.47.894-.843.237-.378.356-.85.356-1.417zm5.335 4.694V52.619h2.551v1.86h.116c.204-.644.553-1.14 1.047-1.49a2.88 2.88 0 011.708-.53c.145 0 .307.007.486.022.185.01.337.027.458.05v2.42a2.756 2.756 0 00-.53-.101 4.897 4.897 0 00-.691-.05c-.479 0-.91.103-1.293.312a2.287 2.287 0 00-.894.85 2.396 2.396 0 00-.327 1.257v6.562h-2.631zm17.332.196c-.877 0-1.662-.225-2.354-.676-.693-.45-1.241-1.104-1.643-1.962-.402-.857-.603-1.899-.603-3.124 0-1.24.204-2.287.61-3.14.412-.857.967-1.504 1.665-1.94a4.274 4.274 0 012.332-.661c.654 0 1.192.111 1.614.334.421.218.755.482 1.002.792.247.305.439.593.574.865h.109v-5.567h2.638v14.883h-2.587v-1.759h-.16a4.45 4.45 0 01-.588.865 3.24 3.24 0 01-1.018.77c-.421.214-.951.32-1.591.32zm.734-2.158c.557 0 1.032-.15 1.424-.45.393-.306.691-.73.894-1.272.204-.543.305-1.175.305-1.897s-.101-1.35-.305-1.882c-.199-.533-.494-.947-.886-1.243-.388-.295-.865-.443-1.432-.443-.586 0-1.076.153-1.468.458-.392.305-.688.726-.887 1.264-.198.538-.297 1.153-.297 1.846 0 .698.099 1.32.297 1.868.204.542.502.971.894 1.286.398.31.884.465 1.461.465zm12.955 2.18c-1.119 0-2.086-.233-2.899-.698a4.725 4.725 0 01-1.868-1.99c-.436-.863-.654-1.878-.654-3.046 0-1.148.218-2.155.654-3.023.441-.872 1.056-1.55 1.846-2.034.789-.49 1.717-.734 2.783-.734.688 0 1.337.111 1.948.334a4.402 4.402 0 011.627 1.017c.475.46.848 1.047 1.119 1.759.272.707.407 1.55.407 2.529v.806h-9.149v-1.773h6.628a2.834 2.834 0 00-.327-1.344 2.375 2.375 0 00-.894-.938c-.378-.227-.819-.341-1.323-.341-.537 0-1.01.13-1.417.392a2.706 2.706 0 00-.952 1.018 2.928 2.928 0 00-.341 1.373v1.548c0 .65.118 1.206.356 1.671.237.46.569.814.995 1.061.427.243.926.364 1.497.364.383 0 .73-.053 1.04-.16.31-.112.578-.274.806-.487.228-.213.4-.477.516-.792l2.456.276a3.828 3.828 0 01-.886 1.7c-.431.48-.984.853-1.657 1.12-.673.261-1.444.392-2.311.392zm7.189 3.968V52.619h2.587v1.846h.152c.136-.272.327-.56.575-.865.247-.31.581-.574 1.002-.792.422-.223.96-.334 1.614-.334.862 0 1.64.22 2.332.661.698.436 1.25 1.083 1.657 1.94.412.853.618 1.9.618 3.14 0 1.225-.201 2.267-.603 3.124-.402.858-.95 1.512-1.643 1.962-.692.45-1.477.676-2.354.676-.64 0-1.17-.106-1.592-.32a3.246 3.246 0 01-1.017-.77 5.015 5.015 0 01-.589-.865h-.109v5.945h-2.63zm2.58-9.767c0 .722.101 1.354.305 1.897.208.542.506.966.894 1.271.392.3.867.45 1.424.45.581 0 1.068-.154 1.461-.464.392-.315.688-.744.886-1.286.204-.548.305-1.17.305-1.868 0-.693-.099-1.308-.298-1.846-.198-.538-.494-.959-.886-1.264-.393-.305-.882-.458-1.468-.458-.562 0-1.039.148-1.432.443-.392.296-.69.71-.893 1.243-.199.533-.298 1.16-.298 1.882zm15.078 5.799c-1.09 0-2.034-.24-2.834-.72a4.888 4.888 0 01-1.86-2.012c-.436-.863-.654-1.87-.654-3.023s.218-2.163.654-3.03a4.878 4.878 0 011.86-2.02c.8-.48 1.744-.72 2.834-.72s2.035.24 2.835.72a4.83 4.83 0 011.853 2.02c.44.867.661 1.877.661 3.03 0 1.153-.221 2.16-.661 3.023a4.84 4.84 0 01-1.853 2.013c-.8.48-1.745.719-2.835.719zm.015-2.107c.591 0 1.085-.163 1.482-.487.398-.33.693-.77.887-1.323a5.414 5.414 0 00.298-1.846c0-.683-.099-1.3-.298-1.853-.194-.557-.489-1-.887-1.33-.397-.329-.891-.494-1.482-.494-.606 0-1.109.165-1.512.494-.397.33-.695.773-.893 1.33a5.565 5.565 0 00-.291 1.853c0 .679.097 1.294.291 1.846.198.552.496.993.893 1.323.403.324.906.487 1.512.487zm16.389-6.323l-2.398.262a1.94 1.94 0 00-.356-.683 1.772 1.772 0 00-.669-.516c-.281-.13-.625-.196-1.032-.196-.547 0-1.008.118-1.381.356-.368.237-.55.545-.545.923a.966.966 0 00.356.792c.247.203.654.37 1.221.501l1.904.407c1.056.228 1.841.589 2.355 1.083.518.494.78 1.14.784 1.94a3.03 3.03 0 01-.617 1.86c-.402.533-.962.95-1.679 1.25-.717.3-1.54.451-2.471.451-1.366 0-2.466-.286-3.299-.858-.833-.576-1.33-1.378-1.49-2.405l2.566-.247c.116.504.363.884.741 1.141s.87.385 1.475.385c.625 0 1.126-.128 1.504-.385.383-.257.574-.574.574-.952a.991.991 0 00-.37-.792c-.242-.208-.62-.368-1.134-.48l-1.904-.4c-1.07-.222-1.862-.598-2.376-1.126-.514-.533-.768-1.206-.763-2.02-.005-.688.182-1.284.56-1.788.382-.508.913-.9 1.591-1.177.683-.28 1.47-.421 2.362-.421 1.308 0 2.337.278 3.088.835.756.558 1.223 1.31 1.403 2.26zm2.409 8.212V52.619h2.63v11.162h-2.63zm1.322-12.746c-.416 0-.775-.138-1.075-.414a1.333 1.333 0 01-.451-1.01c0-.398.15-.734.451-1.01.3-.282.659-.422 1.075-.422.422 0 .78.14 1.076.421.3.277.45.613.45 1.01 0 .393-.15.73-.45 1.01a1.519 1.519 0 01-1.076.415zm9.587 1.584v2.035h-6.417v-2.035h6.417zm-4.832-2.674h2.63v10.479c0 .353.053.625.16.814a.86.86 0 00.436.377c.179.068.378.102.596.102a2.6 2.6 0 00.451-.036 3.94 3.94 0 00.319-.066l.444 2.057a5.934 5.934 0 01-.604.16 4.928 4.928 0 01-.944.102c-.659.019-1.253-.08-1.781-.298a2.77 2.77 0 01-1.257-1.032c-.305-.465-.455-1.047-.45-1.744V49.945z" fill="#252C44"/><path d="M32.208 166.478h-2.942v-8.681h3.001c.862 0 1.603.174 2.222.521a3.496 3.496 0 011.433 1.488c.333.647.5 1.422.5 2.323 0 .904-.168 1.682-.505 2.331a3.49 3.49 0 01-1.445 1.497c-.628.347-1.382.521-2.264.521zm-1.37-1.36h1.294c.605 0 1.109-.111 1.513-.331a2.11 2.11 0 00.911-.996c.204-.444.306-.998.306-1.662 0-.664-.102-1.215-.306-1.653a2.083 2.083 0 00-.902-.988c-.396-.22-.888-.331-1.476-.331h-1.34v5.961zm9.893 1.487c-.653 0-1.217-.135-1.692-.407a2.755 2.755 0 01-1.09-1.161c-.253-.503-.38-1.095-.38-1.776 0-.67.127-1.258.38-1.764a2.892 2.892 0 011.078-1.187c.46-.285 1.001-.428 1.623-.428.401 0 .78.065 1.136.195.36.128.676.325.95.594.277.268.494.61.653 1.026.158.412.237.904.237 1.475v.47h-5.337v-1.034h3.866a1.65 1.65 0 00-.19-.784 1.388 1.388 0 00-.522-.547 1.464 1.464 0 00-.772-.199 1.49 1.49 0 00-.826.229 1.569 1.569 0 00-.556.593 1.71 1.71 0 00-.199.801v.903c0 .379.07.704.208.975.138.269.332.475.58.619.25.141.54.212.874.212.223 0 .425-.031.606-.093.18-.065.338-.16.47-.284.133-.125.234-.279.301-.462l1.433.161c-.09.378-.262.709-.517.992-.251.28-.574.497-.966.653a3.716 3.716 0 01-1.348.228zm4.193 2.315v-8.953h1.51v1.077h.088c.08-.158.191-.327.335-.505.144-.18.34-.334.585-.462.246-.13.56-.195.941-.195.503 0 .957.129 1.36.386.408.254.73.632.967 1.132.24.497.36 1.108.36 1.831 0 .715-.117 1.323-.351 1.823-.235.5-.554.882-.958 1.144a2.463 2.463 0 01-1.374.395c-.373 0-.682-.062-.928-.187a1.885 1.885 0 01-.593-.449 2.883 2.883 0 01-.344-.505h-.063v3.468h-1.535zm1.505-5.697c0 .421.06.79.178 1.106.121.317.295.564.521.742.23.175.506.263.831.263.34 0 .623-.091.852-.272a1.65 1.65 0 00.517-.75c.12-.319.178-.682.178-1.089a3.1 3.1 0 00-.173-1.077 1.617 1.617 0 00-.517-.738c-.23-.178-.515-.267-.857-.267a1.35 1.35 0 00-.835.259 1.587 1.587 0 00-.521.725 3.144 3.144 0 00-.174 1.098zm8.796 3.382c-.636 0-1.187-.139-1.653-.419a2.851 2.851 0 01-1.086-1.174c-.254-.503-.381-1.091-.381-1.764 0-.672.127-1.262.382-1.768a2.85 2.85 0 011.085-1.178c.466-.28 1.017-.42 1.653-.42.636 0 1.187.14 1.653.42.466.28.827.673 1.081 1.178.257.506.386 1.096.386 1.768 0 .673-.129 1.261-.386 1.764a2.823 2.823 0 01-1.08 1.174c-.467.28-1.018.419-1.654.419zm.008-1.229c.345 0 .633-.095.865-.284a1.71 1.71 0 00.517-.771c.116-.323.174-.681.174-1.077 0-.399-.058-.759-.174-1.081a1.71 1.71 0 00-.517-.776c-.232-.192-.52-.288-.865-.288-.353 0-.647.096-.881.288a1.74 1.74 0 00-.522.776c-.113.322-.17.682-.17 1.081 0 .396.057.754.17 1.077.116.322.29.579.522.771.234.189.528.284.881.284zm9.56-3.688l-1.398.153a1.127 1.127 0 00-.208-.399 1.042 1.042 0 00-.39-.301 1.426 1.426 0 00-.602-.114c-.32 0-.588.069-.806.208-.214.138-.32.318-.317.538a.564.564 0 00.207.462c.144.119.382.216.712.292l1.111.238c.616.133 1.074.343 1.374.631.302.289.454.666.457 1.132-.003.41-.123.772-.36 1.086-.234.31-.56.553-.98.729-.417.175-.898.262-1.44.262-.797 0-1.439-.166-1.925-.5a2.01 2.01 0 01-.869-1.403l1.496-.144c.068.294.212.516.433.666.22.149.507.224.86.224.365 0 .657-.075.878-.224.223-.15.335-.335.335-.556a.58.58 0 00-.216-.462c-.142-.121-.362-.215-.662-.28l-1.11-.233c-.625-.13-1.087-.349-1.387-.657-.3-.311-.447-.703-.445-1.178a1.668 1.668 0 01.327-1.043 2.13 2.13 0 01.928-.687c.398-.164.858-.246 1.378-.246.763 0 1.363.163 1.801.488.441.325.714.764.818 1.318zm1.406 4.79v-6.511h1.534v6.511H66.2zm.771-7.435a.896.896 0 01-.627-.242.778.778 0 01-.263-.589.77.77 0 01.263-.589.887.887 0 01.627-.246.88.88 0 01.628.246.77.77 0 01.262.589.778.778 0 01-.262.589.886.886 0 01-.628.242zm5.593.924v1.187H68.82v-1.187h3.743zm-2.82-1.56h1.535v6.113c0 .206.031.364.093.475.065.107.15.18.255.22.104.04.22.059.347.059.096 0 .184-.007.263-.021.082-.014.144-.027.187-.038l.258 1.2a3.51 3.51 0 01-.352.093 2.82 2.82 0 01-.55.059 2.478 2.478 0 01-1.04-.174 1.615 1.615 0 01-.733-.601c-.178-.272-.265-.611-.262-1.018v-6.367zm8.938 8.203c-.413 0-.785-.074-1.115-.221a1.821 1.821 0 01-.78-.661c-.19-.291-.284-.65-.284-1.077 0-.367.068-.671.203-.911.136-.24.32-.433.555-.577a2.79 2.79 0 01.793-.326 6.5 6.5 0 01.92-.165c.382-.04.691-.075.928-.106.238-.034.41-.085.517-.153.11-.071.166-.179.166-.326v-.026c0-.319-.095-.566-.284-.742-.19-.175-.462-.262-.818-.262-.376 0-.674.082-.895.245a1.222 1.222 0 00-.44.581l-1.433-.203c.113-.396.3-.727.56-.992a2.43 2.43 0 01.953-.602 3.64 3.64 0 011.246-.204c.314 0 .626.037.937.111.31.073.595.195.852.364.257.167.464.394.619.683.158.288.237.648.237 1.081v4.357h-1.475v-.894h-.05c-.094.181-.225.35-.395.509a1.901 1.901 0 01-.631.377c-.252.093-.547.14-.886.14zm.398-1.128c.308 0 .575-.061.801-.182.226-.125.4-.288.522-.492a1.25 1.25 0 00.186-.665v-.768a.713.713 0 01-.246.111c-.113.033-.24.063-.381.089-.142.025-.281.048-.42.067l-.36.051a2.657 2.657 0 00-.615.153c-.18.07-.323.169-.428.297a.724.724 0 00-.157.483c0 .282.103.496.31.64.206.144.469.216.788.216zm6.999 1.111c-.512 0-.97-.132-1.374-.395-.404-.262-.723-.644-.958-1.144-.234-.5-.352-1.108-.352-1.823 0-.723.119-1.334.356-1.831.24-.5.564-.878.971-1.132.407-.257.86-.386 1.36-.386.382 0 .696.065.942.195.246.128.44.282.585.462.144.178.256.347.335.505h.063v-3.247h1.54v8.681h-1.51v-1.026h-.093c-.08.159-.194.327-.343.505a1.89 1.89 0 01-.594.449c-.246.125-.555.187-.928.187zm.428-1.259c.325 0 .602-.088.83-.263a1.64 1.64 0 00.522-.742 3.14 3.14 0 00.178-1.106c0-.421-.06-.787-.178-1.098a1.56 1.56 0 00-.517-.725c-.226-.172-.505-.259-.835-.259-.342 0-.628.089-.856.267a1.617 1.617 0 00-.518.738 3.1 3.1 0 00-.174 1.077c0 .407.058.77.174 1.089.119.317.293.567.522.75.231.181.516.272.852.272zm7.09 1.259c-.51 0-.969-.132-1.373-.395-.404-.262-.723-.644-.958-1.144-.234-.5-.352-1.108-.352-1.823 0-.723.119-1.334.356-1.831.24-.5.564-.878.971-1.132.407-.257.86-.386 1.36-.386.382 0 .696.065.942.195.246.128.44.282.585.462.144.178.256.347.335.505h.063v-3.247h1.54v8.681h-1.51v-1.026h-.093c-.08.159-.194.327-.344.505-.15.175-.347.325-.593.449-.246.125-.555.187-.928.187zm.429-1.259c.325 0 .602-.088.83-.263.23-.178.403-.425.522-.742a3.14 3.14 0 00.178-1.106c0-.421-.06-.787-.178-1.098a1.56 1.56 0 00-.517-.725c-.226-.172-.505-.259-.835-.259-.342 0-.628.089-.857.267a1.617 1.617 0 00-.517.738 3.1 3.1 0 00-.173 1.077c0 .407.058.77.173 1.089.119.317.293.567.522.75.231.181.516.272.852.272zm4.674 1.144v-6.511h1.488v1.085h.068c.119-.376.322-.665.611-.869.291-.206.623-.309.996-.309.084 0 .179.004.284.013.107.005.196.015.267.029v1.412a1.516 1.516 0 00-.31-.059 2.802 2.802 0 00-.402-.03c-.28 0-.532.061-.755.182-.22.119-.394.284-.521.496a1.389 1.389 0 00-.191.733v3.828h-1.535zm7.348.127c-.653 0-1.217-.135-1.692-.407a2.752 2.752 0 01-1.089-1.161c-.254-.503-.382-1.095-.382-1.776 0-.67.128-1.258.382-1.764a2.889 2.889 0 011.077-1.187c.46-.285 1.001-.428 1.623-.428.401 0 .78.065 1.136.195.359.128.676.325.95.594.277.268.494.61.653 1.026.158.412.237.904.237 1.475v.47h-5.337v-1.034h3.866a1.644 1.644 0 00-.191-.784 1.385 1.385 0 00-.521-.547 1.467 1.467 0 00-.772-.199 1.49 1.49 0 00-.826.229 1.568 1.568 0 00-.556.593 1.71 1.71 0 00-.199.801v.903c0 .379.069.704.208.975.138.269.332.475.581.619.248.141.539.212.873.212.223 0 .425-.031.606-.093.181-.065.338-.16.471-.284.132-.125.233-.279.301-.462l1.432.161c-.09.378-.262.709-.517.992-.251.28-.574.497-.966.653a3.716 3.716 0 01-1.348.228zm9.339-4.917l-1.399.153a1.113 1.113 0 00-.207-.399 1.04 1.04 0 00-.39-.301 1.428 1.428 0 00-.602-.114c-.32 0-.588.069-.806.208-.214.138-.32.318-.318.538a.568.568 0 00.208.462c.144.119.382.216.712.292l1.111.238c.616.133 1.074.343 1.373.631.303.289.455.666.458 1.132-.003.41-.123.772-.36 1.086-.235.31-.561.553-.979.729-.419.175-.899.262-1.442.262-.797 0-1.438-.166-1.924-.5a2.01 2.01 0 01-.869-1.403l1.496-.144c.068.294.212.516.433.666.22.149.507.224.86.224.365 0 .657-.075.878-.224.223-.15.335-.335.335-.556a.58.58 0 00-.217-.462c-.141-.121-.361-.215-.661-.28l-1.111-.233c-.624-.13-1.086-.349-1.386-.657-.299-.311-.448-.703-.445-1.178a1.664 1.664 0 01.327-1.043 2.13 2.13 0 01.928-.687c.398-.164.858-.246 1.378-.246.763 0 1.363.163 1.801.488.441.325.714.764.818 1.318zm6.552 0l-1.399.153a1.132 1.132 0 00-.208-.399 1.04 1.04 0 00-.39-.301 1.424 1.424 0 00-.602-.114c-.319 0-.588.069-.805.208-.215.138-.321.318-.318.538a.562.562 0 00.208.462c.144.119.381.216.712.292l1.11.238c.616.133 1.074.343 1.374.631.302.289.455.666.458 1.132a1.77 1.77 0 01-.361 1.086c-.234.31-.561.553-.979.729-.418.175-.899.262-1.441.262-.797 0-1.439-.166-1.925-.5-.486-.336-.775-.804-.869-1.403l1.497-.144c.067.294.212.516.432.666.22.149.507.224.861.224.364 0 .657-.075.877-.224.223-.15.335-.335.335-.556a.58.58 0 00-.216-.462c-.142-.121-.362-.215-.662-.28l-1.11-.233c-.625-.13-1.087-.349-1.386-.657-.3-.311-.448-.703-.445-1.178a1.67 1.67 0 01.326-1.043c.223-.297.533-.526.928-.687.399-.164.858-.246 1.378-.246.763 0 1.364.163 1.802.488.44.325.713.764.818 1.318zm2.35 4.884a.91.91 0 01-.661-.272.876.876 0 01-.271-.661.868.868 0 01.271-.653.908.908 0 01.661-.271c.249 0 .465.09.649.271a.895.895 0 01.284.653.9.9 0 01-.136.47.977.977 0 01-.339.34.88.88 0 01-.458.123zm0-4.646a.91.91 0 01-.661-.272.884.884 0 01-.271-.661.868.868 0 01.271-.653.9.9 0 01.661-.275c.249 0 .465.091.649.275a.895.895 0 01.284.653.892.892 0 01-.136.466.966.966 0 01-.339.339.857.857 0 01-.458.128zm-90.164-55.459a1.156 1.156 0 00-.5-.865c-.291-.207-.67-.31-1.136-.31-.328 0-.61.05-.844.149a1.253 1.253 0 00-.538.402.982.982 0 00-.19.581c0 .181.04.338.122.471.085.132.2.246.343.339.145.09.304.167.48.229.175.062.351.114.53.157l.813.203c.328.076.643.179.946.309.305.13.578.294.818.492.243.198.435.437.576.717.142.279.212.607.212.983 0 .509-.13.957-.39 1.344-.26.384-.636.685-1.127.903-.49.214-1.081.322-1.777.322-.675 0-1.261-.105-1.759-.314a2.62 2.62 0 01-1.161-.915c-.277-.402-.427-.891-.45-1.467h1.548c.022.302.116.554.28.754.163.201.377.351.64.45.265.099.562.148.89.148.342 0 .641-.051.898-.152a1.46 1.46 0 00.61-.433c.148-.186.223-.404.225-.653a.828.828 0 00-.199-.559 1.459 1.459 0 00-.547-.373 5.337 5.337 0 00-.813-.272l-.988-.254c-.715-.184-1.28-.462-1.696-.835-.412-.376-.619-.875-.619-1.496 0-.512.139-.96.416-1.344a2.75 2.75 0 011.14-.895c.48-.214 1.024-.322 1.632-.322.616 0 1.156.108 1.62.322a2.64 2.64 0 011.097.886c.266.376.403.809.411 1.298h-1.513zm5.849 6.422c-.653 0-1.217-.136-1.691-.407a2.758 2.758 0 01-1.09-1.162c-.254-.503-.381-1.095-.381-1.776 0-.67.127-1.258.381-1.763a2.88 2.88 0 011.077-1.187c.46-.286 1.002-.428 1.623-.428.402 0 .78.065 1.136.195.36.127.676.325.95.593.277.268.494.61.653 1.026.158.412.237.904.237 1.475v.471h-5.337v-1.035h3.866a1.65 1.65 0 00-.19-.784 1.388 1.388 0 00-.522-.547 1.464 1.464 0 00-.771-.199c-.314 0-.59.076-.827.229-.237.15-.423.347-.555.593a1.71 1.71 0 00-.2.801v.903c0 .379.07.704.208.975.139.269.332.475.58.619.25.142.54.212.874.212.223 0 .425-.031.606-.093a1.34 1.34 0 00.47-.284 1.17 1.17 0 00.302-.462l1.433.161c-.09.379-.263.709-.518.992-.251.28-.573.497-.966.653a3.716 3.716 0 01-1.348.229zm5.728-3.943v3.815h-1.535v-6.511h1.467v1.107h.076c.15-.365.389-.655.717-.869.33-.215.739-.322 1.225-.322.45 0 .84.096 1.174.288.336.192.596.47.78.835.187.364.278.807.276 1.327v4.145h-1.535v-3.908c0-.435-.113-.776-.34-1.022-.222-.245-.532-.368-.927-.368-.269 0-.508.059-.717.178a1.237 1.237 0 00-.487.504 1.706 1.706 0 00-.174.801zm8.156 3.93c-.512 0-.97-.131-1.374-.394-.404-.263-.723-.645-.958-1.145-.234-.5-.352-1.108-.352-1.823 0-.723.12-1.334.357-1.831.24-.5.563-.877.97-1.132.407-.257.86-.385 1.361-.385.382 0 .695.065.941.195.246.127.44.281.585.462.144.178.256.346.335.504h.063v-3.247h1.54v8.681h-1.51v-1.025h-.093a2.63 2.63 0 01-.343.504 1.89 1.89 0 01-.594.449c-.246.125-.555.187-.928.187zm.428-1.259c.325 0 .602-.088.83-.263.23-.178.404-.425.522-.742a3.14 3.14 0 00.178-1.106c0-.421-.06-.787-.178-1.098a1.566 1.566 0 00-.517-.725c-.226-.172-.504-.258-.835-.258-.342 0-.627.089-.856.267a1.613 1.613 0 00-.518.737 3.098 3.098 0 00-.173 1.077c0 .407.058.77.173 1.089.12.317.293.567.522.751.232.181.516.271.852.271zm10.052 1.259c-.512 0-.97-.131-1.374-.394-.404-.263-.723-.645-.958-1.145-.234-.5-.352-1.108-.352-1.823 0-.723.12-1.334.357-1.831.24-.5.563-.877.97-1.132.407-.257.86-.385 1.361-.385.382 0 .695.065.941.195.246.127.44.281.585.462.144.178.256.346.335.504h.064v-3.247h1.538v8.681h-1.509v-1.025h-.093c-.08.158-.194.326-.343.504a1.89 1.89 0 01-.594.449c-.246.125-.555.187-.928.187zm.428-1.259c.325 0 .602-.088.83-.263.23-.178.403-.425.522-.742a3.14 3.14 0 00.178-1.106c0-.421-.06-.787-.178-1.098a1.565 1.565 0 00-.517-.725c-.226-.172-.504-.258-.835-.258-.342 0-.627.089-.856.267a1.613 1.613 0 00-.518.737 3.1 3.1 0 00-.173 1.077c0 .407.058.77.173 1.089.12.317.293.567.522.751.232.181.516.271.852.271zm7.557 1.272c-.653 0-1.217-.136-1.691-.407a2.758 2.758 0 01-1.09-1.162c-.254-.503-.381-1.095-.381-1.776 0-.67.127-1.258.381-1.763a2.88 2.88 0 011.077-1.187c.46-.286 1.002-.428 1.624-.428.4 0 .78.065 1.135.195.36.127.676.325.95.593.277.268.495.61.653 1.026.158.412.237.904.237 1.475v.471H69.88v-1.035h3.866a1.65 1.65 0 00-.19-.784 1.388 1.388 0 00-.522-.547 1.464 1.464 0 00-.771-.199c-.314 0-.59.076-.827.229-.237.15-.423.347-.555.593a1.71 1.71 0 00-.2.801v.903c0 .379.07.704.208.975.139.269.332.475.581.619.249.142.54.212.873.212.223 0 .425-.031.606-.093a1.34 1.34 0 00.47-.284 1.17 1.17 0 00.302-.462l1.433.161c-.09.379-.263.709-.517.992a2.53 2.53 0 01-.967.653 3.716 3.716 0 01-1.348.229zm4.194 2.314v-8.953h1.509v1.077h.089c.079-.158.19-.326.334-.504a1.79 1.79 0 01.585-.462c.246-.13.56-.195.942-.195.503 0 .956.128 1.36.385.407.255.73.632.967 1.132.24.497.36 1.108.36 1.831 0 .715-.117 1.323-.352 1.823-.234.5-.554.882-.958 1.145a2.462 2.462 0 01-1.373.394c-.373 0-.683-.062-.929-.187a1.886 1.886 0 01-.593-.449 2.915 2.915 0 01-.343-.504h-.064v3.467h-1.534zm1.504-5.697c0 .421.06.79.178 1.106.122.317.296.564.522.742.229.175.506.263.83.263.34 0 .624-.09.853-.271.229-.184.4-.434.517-.751.118-.319.178-.682.178-1.089 0-.404-.058-.763-.174-1.077a1.613 1.613 0 00-.517-.737c-.229-.178-.514-.267-.856-.267a1.35 1.35 0 00-.835.258 1.593 1.593 0 00-.522.725 3.142 3.142 0 00-.174 1.098zm8.796 3.383c-.636 0-1.187-.14-1.653-.42a2.851 2.851 0 01-1.085-1.174c-.255-.503-.382-1.091-.382-1.764 0-.672.127-1.261.382-1.767a2.846 2.846 0 011.085-1.179c.466-.28 1.017-.419 1.653-.419.636 0 1.187.139 1.653.419.467.28.827.673 1.082 1.179.257.506.385 1.095.385 1.767 0 .673-.128 1.261-.386 1.764a2.823 2.823 0 01-1.08 1.174c-.467.28-1.018.42-1.654.42zm.009-1.23c.345 0 .633-.094.864-.284a1.71 1.71 0 00.518-.771 3.16 3.16 0 00.174-1.077c0-.398-.058-.759-.174-1.081a1.715 1.715 0 00-.517-.776c-.232-.192-.52-.288-.865-.288-.353 0-.647.096-.882.288a1.744 1.744 0 00-.521.776 3.25 3.25 0 00-.17 1.081c0 .396.057.755.17 1.077.115.322.29.579.521.771.235.19.529.284.882.284zm9.56-3.688l-1.399.153a1.122 1.122 0 00-.208-.398 1.022 1.022 0 00-.39-.301 1.41 1.41 0 00-.602-.115c-.319 0-.588.069-.805.208-.215.138-.32.318-.318.538a.563.563 0 00.208.462c.144.119.381.216.712.293l1.11.237c.617.133 1.074.343 1.374.632.302.288.455.665.458 1.132a1.772 1.772 0 01-.36 1.085c-.235.311-.562.554-.98.729-.418.175-.898.263-1.441.263-.797 0-1.439-.167-1.925-.501a2.01 2.01 0 01-.869-1.403l1.497-.144c.068.294.212.516.432.666.22.15.507.224.86.224.365 0 .658-.074.878-.224.223-.15.335-.335.335-.556a.58.58 0 00-.216-.462c-.141-.121-.362-.214-.661-.279l-1.111-.234c-.625-.13-1.087-.349-1.386-.657-.3-.31-.448-.703-.445-1.178a1.67 1.67 0 01.326-1.043c.223-.297.533-.526.928-.687.399-.164.858-.245 1.378-.245.763 0 1.364.162 1.802.487.44.325.713.764.818 1.318zm1.405 4.79v-6.511h1.535v6.511H97.79zm.772-7.435a.895.895 0 01-.628-.241.78.78 0 01-.263-.59.77.77 0 01.263-.589.886.886 0 01.628-.246c.246 0 .455.082.627.246a.77.77 0 01.263.589.78.78 0 01-.263.59.885.885 0 01-.627.241zm5.592.924v1.187h-3.743v-1.187h3.743zm-2.819-1.56h1.535v6.113c0 .206.031.365.093.475.065.107.15.181.254.22a.97.97 0 00.348.06 2.008 2.008 0 00.449-.06l.259 1.2c-.082.028-.2.059-.352.093-.15.034-.334.054-.551.059a2.494 2.494 0 01-1.039-.173 1.617 1.617 0 01-.733-.602c-.178-.272-.266-.611-.263-1.018v-6.367zm5.048 8.165a.91.91 0 01-.662-.272.878.878 0 01-.271-.661.871.871 0 01.271-.653.909.909 0 01.662-.271c.248 0 .464.09.648.271a.891.891 0 01.149 1.124.977.977 0 01-.34.339.88.88 0 01-.457.123zm0-4.646a.91.91 0 01-.662-.272.887.887 0 01-.271-.661.871.871 0 01.271-.653.905.905 0 01.662-.275.89.89 0 01.648.275.891.891 0 01.284.653.971.971 0 01-.475.806.865.865 0 01-.457.127z" fill="#3F5878"/><path d="M190.536 115.44c-.997 0-1.853-.253-2.567-.757-.711-.509-1.258-1.242-1.641-2.199-.38-.961-.57-2.117-.57-3.47.004-1.352.196-2.503.576-3.451.383-.953.93-1.68 1.641-2.18.714-.501 1.568-.751 2.561-.751.994 0 1.847.25 2.562.751.715.5 1.262 1.227 1.641 2.18.384.952.575 2.103.575 3.451 0 1.357-.191 2.516-.575 3.476-.379.957-.926 1.688-1.641 2.193-.711.504-1.564.757-2.562.757zm0-1.896c.776 0 1.387-.381 1.835-1.144.453-.768.679-1.896.679-3.386 0-.985-.103-1.812-.309-2.482-.206-.671-.497-1.175-.872-1.514a1.908 1.908 0 00-1.333-.515c-.771 0-1.38.383-1.828 1.15-.449.763-.675 1.884-.679 3.361-.004.989.095 1.821.297 2.495.206.675.497 1.183.872 1.526.376.34.822.509 1.338.509zm7.682 1.793c-.367 0-.682-.13-.945-.388a1.256 1.256 0 01-.387-.945 1.24 1.24 0 01.387-.932c.263-.259.578-.388.945-.388.355 0 .664.129.927.388a1.273 1.273 0 01.212 1.605 1.396 1.396 0 01-.485.484 1.262 1.262 0 01-.654.176zm7.084-12.536v12.402h-2.247v-10.216h-.072l-2.901 1.853v-2.059l3.082-1.98h2.138zm7.203 12.402v-12.402h4.748c.896 0 1.641.141 2.235.424.597.279 1.043.66 1.338 1.145a3.07 3.07 0 01.448 1.647c0 .504-.097.936-.29 1.296a2.451 2.451 0 01-.782.866 3.305 3.305 0 01-1.096.478v.121c.44.024.862.16 1.266.406.408.242.741.585.999 1.029.258.445.388.981.388 1.611 0 .642-.156 1.219-.467 1.732-.31.509-.779.911-1.405 1.205-.625.295-1.413.442-2.361.442h-5.021zm2.247-1.877h2.416c.816 0 1.403-.155 1.763-.466.363-.315.545-.719.545-1.211a1.854 1.854 0 00-1.048-1.696c-.335-.174-.735-.26-1.199-.26h-2.477v3.633zm0-5.25h2.223c.387 0 .736-.071 1.047-.212.311-.146.555-.349.733-.612.182-.266.273-.581.273-.945 0-.48-.17-.876-.509-1.186-.335-.311-.834-.467-1.496-.467h-2.271v3.422zm8.416-3.391v-1.884h9.895v1.884h-3.833v10.518h-2.229v-10.518h-3.833zm21.869 2.301h-2.265a2.81 2.81 0 00-.357-.987 2.666 2.666 0 00-.648-.739 2.695 2.695 0 00-.884-.454 3.447 3.447 0 00-1.06-.158c-.674 0-1.272.17-1.792.509-.521.335-.929.827-1.224 1.477-.294.646-.442 1.436-.442 2.368 0 .949.148 1.748.442 2.398.299.646.707 1.135 1.224 1.466.52.327 1.116.49 1.786.49a3.61 3.61 0 001.042-.145c.327-.101.619-.248.878-.442a2.69 2.69 0 001.035-1.684l2.265.013a4.876 4.876 0 01-.551 1.659 4.887 4.887 0 01-1.096 1.368 5.043 5.043 0 01-1.587.921 5.917 5.917 0 01-2.016.327c-1.09 0-2.063-.252-2.919-.757-.856-.505-1.53-1.233-2.023-2.186-.492-.953-.739-2.095-.739-3.428 0-1.336.249-2.479.745-3.427.497-.953 1.173-1.682 2.029-2.186.856-.505 1.825-.757 2.907-.757.69 0 1.332.097 1.925.29a4.94 4.94 0 011.587.854c.464.372.846.828 1.145 1.369.302.537.5 1.15.593 1.841z" fill="#252C44"/><g clip-path="url(#clip0_6738_328058)"><path d="M179.377 112.028c-1.595 6.395-8.072 10.287-14.467 8.692-6.393-1.594-10.285-8.072-8.69-14.466 1.593-6.396 8.07-10.288 14.464-8.693 6.395 1.594 10.287 8.072 8.693 14.467z" fill="#F7931A"/><path fill-rule="evenodd" clip-rule="evenodd" d="M173.062 107.441c.237-1.589-.972-2.443-2.626-3.012l.536-2.152-1.309-.326-.523 2.095a52.003 52.003 0 00-1.049-.247l.526-2.109-1.309-.327-.537 2.151a40.178 40.178 0 01-.836-.196l.001-.007-1.806-.451-.349 1.399s.972.223.952.237c.53.132.626.483.61.761l-.611 2.452c.036.009.084.023.136.044l-.038-.01-.1-.025-.857 3.434c-.065.162-.229.404-.6.312.013.019-.952-.238-.952-.238l-.651 1.499 1.705.425c.187.047.371.095.553.143h.001l.38.098-.542 2.177 1.308.326.537-2.153c.357.097.704.186 1.044.271l-.535 2.143 1.31.326.542-2.172c2.234.423 3.913.252 4.62-1.768.57-1.627-.028-2.565-1.203-3.177.855-.197 1.5-.76 1.672-1.923zm-2.993 4.197c-.372 1.492-2.708.875-3.776.593a24.495 24.495 0 00-.256-.067l.72-2.883c.089.022.198.047.322.074 1.105.249 3.37.757 2.99 2.283zm-2.769-3.621c.891.238 2.835.757 3.174-.6.346-1.387-1.543-1.805-2.466-2.009a15.719 15.719 0 01-.27-.062l-.652 2.615.214.056z" fill="#fff"/></g><rect opacity=".5" x="155.006" y="238.743" width="100.613" height="386.251" rx="6.821" transform="rotate(-90 155.006 238.743)" fill="#ECF1F7"/><path d="M161.828 239.17a6.395 6.395 0 01-6.395-6.395v-87.823a6.395 6.395 0 016.395-6.395h372.608a6.395 6.395 0 016.395 6.395v87.823a6.395 6.395 0 01-6.395 6.395H161.828z" stroke="#C6D5EA" stroke-width=".853"/><path d="M261.475 152.635v8.727h-1.321v-7.406h-.051l-2.088 1.364v-1.262l2.177-1.423h1.283zm5.309 8.847c-.61 0-1.15-.105-1.619-.316-.466-.21-.831-.5-1.095-.869a2.091 2.091 0 01-.392-1.261 2.215 2.215 0 01.861-1.799c.267-.21.565-.343.895-.4v-.051a1.762 1.762 0 01-1.044-.699 2.041 2.041 0 01-.388-1.245 2.045 2.045 0 01.353-1.193 2.48 2.48 0 01.993-.831c.421-.201.9-.302 1.436-.302a3.19 3.19 0 011.424.307c.42.201.751.478.993.83.241.35.363.746.366 1.189a2.077 2.077 0 01-.4 1.245 1.78 1.78 0 01-1.032.699v.051c.327.057.621.19.882.4.265.208.475.468.631.78.159.31.24.649.243 1.019a2.132 2.132 0 01-.401 1.261c-.264.369-.63.659-1.099.869-.466.211-1.001.316-1.607.316zm0-1.079c.361 0 .674-.059.938-.178.264-.123.469-.292.614-.508.144-.218.218-.474.221-.767a1.438 1.438 0 00-.238-.805 1.605 1.605 0 00-.627-.55 1.992 1.992 0 00-.908-.2 2.03 2.03 0 00-.916.2 1.586 1.586 0 00-.63.55 1.4 1.4 0 00-.226.805 1.34 1.34 0 00.209.767c.144.216.35.385.617.508.267.119.583.178.946.178zm0-4.061c.29 0 .547-.058.772-.174a1.333 1.333 0 00.728-1.215 1.342 1.342 0 00-.196-.716 1.246 1.246 0 00-.524-.473 1.71 1.71 0 00-.78-.17c-.301 0-.565.057-.792.17a1.246 1.246 0 00-.524.473 1.327 1.327 0 00-.184.716c-.002.279.06.522.188.729.128.207.304.369.528.486.228.116.489.174.784.174zm4.527 5.02v-.878l4.59-6.715h-4.628v-1.134h6.238v.878l-4.589 6.716h4.628v1.133h-6.239zm13.386-5.97a2.653 2.653 0 00-.332-.694 2.137 2.137 0 00-.49-.529 2.07 2.07 0 00-.652-.337 2.646 2.646 0 00-.797-.115c-.492 0-.935.127-1.33.38s-.707.623-.937 1.112c-.228.486-.341 1.081-.341 1.785 0 .708.115 1.306.345 1.794.23.489.545.86.946 1.113.401.252.857.379 1.368.379.474 0 .888-.097 1.24-.29.355-.193.629-.466.822-.818.196-.355.294-.773.294-1.253l.341.064h-2.497v-1.087h3.431v.993c0 .733-.157 1.37-.469 1.909a3.2 3.2 0 01-1.287 1.245c-.546.292-1.171.439-1.875.439-.79 0-1.483-.182-2.08-.546-.593-.363-1.056-.879-1.389-1.547-.332-.67-.498-1.466-.498-2.386 0-.696.096-1.321.289-1.875a4.1 4.1 0 01.814-1.411 3.558 3.558 0 011.24-.89 3.876 3.876 0 011.564-.311c.472 0 .911.069 1.317.209.409.139.773.336 1.091.592a3.36 3.36 0 011.223 2.075h-1.351zm7.885 1.023l-1.155.204a1.362 1.362 0 00-.23-.421 1.152 1.152 0 00-.418-.329 1.514 1.514 0 00-.66-.127c-.361 0-.662.081-.904.242-.241.16-.362.366-.362.618 0 .219.081.395.243.529.162.133.423.243.784.328l1.04.239c.602.139 1.051.353 1.346.643.296.29.444.666.444 1.129 0 .392-.114.742-.341 1.049-.225.304-.539.542-.942.715-.401.174-.865.26-1.394.26-.733 0-1.331-.156-1.794-.468-.463-.316-.747-.763-.852-1.343l1.232-.187c.076.321.234.564.473.729.238.161.549.242.933.242.417 0 .751-.086 1.001-.26.25-.176.375-.39.375-.643a.668.668 0 00-.23-.516c-.15-.139-.382-.244-.694-.315l-1.108-.243c-.611-.139-1.063-.361-1.356-.665-.289-.304-.434-.689-.434-1.154 0-.387.108-.725.324-1.015.216-.289.514-.515.895-.677.38-.165.816-.247 1.308-.247.707 0 1.264.153 1.67.46.407.304.675.711.806 1.223zm4.822-3.78v8.727h-1.321v-7.406h-.051l-2.088 1.364v-1.262l2.178-1.423h1.282zm2.481 8.727v-8.727h5.471v1.134h-4.155v2.659h3.87v1.129h-3.87v2.672h4.206v1.133h-5.522zm10.422-8.727v8.727h-1.321v-7.406h-.051l-2.088 1.364v-1.262l2.177-1.423h1.283zm5.122 11.318c-.52 0-.967-.068-1.342-.204a2.597 2.597 0 01-.912-.542 2.274 2.274 0 01-.529-.737l1.095-.451c.077.125.179.257.307.396.131.142.307.263.529.362.224.1.512.149.865.149.483 0 .882-.118 1.197-.353.316-.233.473-.606.473-1.117v-1.287h-.081a2.882 2.882 0 01-.332.465c-.142.17-.338.318-.588.443-.25.125-.575.187-.976.187-.517 0-.983-.12-1.398-.362-.412-.244-.738-.604-.98-1.078-.239-.477-.358-1.064-.358-1.76s.118-1.293.354-1.79c.238-.497.565-.878.98-1.142.415-.267.885-.4 1.41-.4.407 0 .735.068.985.204.25.134.444.29.584.469.142.179.251.337.328.473h.094v-1.061h1.248v6.69c0 .563-.131 1.024-.392 1.385a2.3 2.3 0 01-1.061.801c-.443.174-.943.26-1.5.26zm-.013-3.746c.367 0 .676-.085.929-.255.256-.174.449-.421.58-.742.133-.324.2-.711.2-1.163 0-.44-.065-.828-.196-1.163a1.722 1.722 0 00-.575-.784c-.253-.191-.566-.286-.938-.286-.383 0-.703.099-.959.298a1.805 1.805 0 00-.579.801 3.185 3.185 0 00-.192 1.134c0 .429.065.805.196 1.129.131.324.324.577.58.759.258.182.576.272.954.272zm4.777 1.155v-8.727h1.317v4.168h.106l3.661-4.168h1.658l-3.52 3.929 3.532 4.798h-1.585l-2.821-3.899-1.031 1.185v2.714h-1.317zm8.732-8.727l2.429 7.108h.098l2.429-7.108h1.423l-3.141 8.727h-1.521l-3.141-8.727h1.424zm10.558 8.847c-.585 0-1.108-.101-1.568-.303a2.673 2.673 0 01-1.087-.839 2.233 2.233 0 01-.426-1.253h1.338c.017.258.104.483.26.673.159.188.367.332.623.435.255.102.539.153.852.153.344 0 .648-.06.912-.179.267-.119.476-.285.626-.498a1.27 1.27 0 00.226-.746c0-.293-.075-.55-.226-.772a1.475 1.475 0 00-.652-.528c-.284-.128-.628-.192-1.031-.192h-.737v-1.074h.737c.324 0 .608-.058.852-.174.247-.117.441-.279.58-.486.139-.21.209-.456.209-.737 0-.27-.062-.505-.184-.703a1.22 1.22 0 00-.511-.473 1.657 1.657 0 00-.776-.171 2.02 2.02 0 00-.797.158c-.244.102-.443.25-.596.443-.154.19-.236.419-.247.686h-1.274a2.15 2.15 0 01.417-1.244c.267-.358.62-.638 1.057-.84a3.45 3.45 0 011.457-.302c.56 0 1.043.109 1.449.328.409.216.725.504.946.865.225.361.336.756.333 1.185.003.488-.134.903-.409 1.244a1.989 1.989 0 01-1.091.686v.068c.579.088 1.028.318 1.346.69.321.373.48.834.478 1.385.002.481-.131.911-.401 1.292-.267.38-.632.68-1.095.899-.463.216-.993.324-1.59.324zm4.713-.12v-6.545h1.275v6.545h-1.275zm.644-7.555a.808.808 0 01-.571-.222.72.72 0 01-.235-.537c0-.21.079-.389.235-.537a.802.802 0 01.571-.225c.221 0 .41.075.567.225a.706.706 0 01.238.537.713.713 0 01-.238.537.797.797 0 01-.567.222zm3.184 7.555h-1.398l3.141-8.727h1.521l3.141 8.727h-1.398l-2.467-7.142h-.068l-2.472 7.142zm.235-3.417h4.534v1.108h-4.534v-1.108zm12.12-3.017a1.246 1.246 0 00-.563-.938c-.329-.224-.744-.337-1.244-.337a2.31 2.31 0 00-.929.171 1.433 1.433 0 00-.609.46 1.088 1.088 0 00-.213.661c0 .207.048.386.145.537.099.15.228.277.387.379.162.099.336.183.52.251.185.066.362.12.533.162l.852.222c.279.068.564.16.857.277.292.116.564.27.814.46s.451.426.605.707c.156.282.234.618.234 1.01 0 .495-.128.934-.383 1.317-.253.384-.621.686-1.104.908-.48.221-1.061.332-1.743.332-.653 0-1.219-.104-1.696-.311-.477-.207-.851-.501-1.121-.882-.27-.384-.419-.838-.447-1.364h1.321c.025.316.128.578.307.789.181.207.413.362.694.464.284.1.595.149.933.149.373 0 .704-.058.993-.174.293-.12.523-.284.691-.495.167-.213.251-.461.251-.745 0-.259-.074-.471-.221-.635a1.639 1.639 0 00-.593-.409 5.743 5.743 0 00-.839-.286l-1.032-.281c-.698-.191-1.252-.47-1.661-.84-.407-.369-.61-.858-.61-1.466 0-.502.137-.941.409-1.316a2.686 2.686 0 011.108-.874c.466-.21.992-.315 1.577-.315.591 0 1.112.103 1.564.311.454.207.812.493 1.074.856.261.361.397.776.409 1.245h-1.27zm5.882 6.554c-.586 0-1.108-.101-1.569-.303a2.663 2.663 0 01-1.086-.839 2.233 2.233 0 01-.426-1.253h1.338c.017.258.103.483.26.673.159.188.366.332.622.435.256.102.54.153.852.153.344 0 .648-.06.912-.179.267-.119.476-.285.626-.498a1.27 1.27 0 00.226-.746c0-.293-.075-.55-.226-.772a1.47 1.47 0 00-.652-.528c-.284-.128-.627-.192-1.031-.192h-.737v-1.074h.737c.324 0 .608-.058.853-.174.247-.117.44-.279.579-.486.139-.21.209-.456.209-.737 0-.27-.061-.505-.183-.703-.12-.202-.29-.36-.512-.473a1.653 1.653 0 00-.775-.171c-.284 0-.55.053-.797.158-.244.102-.443.25-.597.443-.153.19-.236.419-.247.686h-1.274c.014-.472.153-.886.418-1.244a2.705 2.705 0 011.056-.84 3.455 3.455 0 011.458-.302c.559 0 1.042.109 1.449.328.409.216.724.504.946.865.224.361.335.756.332 1.185.003.488-.134.903-.409 1.244a1.985 1.985 0 01-1.091.686v.068c.58.088 1.028.318 1.347.69.321.373.48.834.477 1.385.003.481-.131.911-.401 1.292-.267.38-.632.68-1.095.899-.463.216-.993.324-1.589.324zm5.518 2.335c-.19 0-.364-.016-.52-.047a1.619 1.619 0 01-.349-.094l.307-1.044c.233.063.44.09.622.081a.744.744 0 00.481-.204c.142-.128.267-.337.375-.627l.158-.434-2.395-6.631h1.364l1.657 5.079h.069l1.657-5.079h1.368l-2.697 7.419a2.944 2.944 0 01-.478.865 1.844 1.844 0 01-.69.537 2.264 2.264 0 01-.929.179zm6.094-2.455v-8.727h3.111c.679 0 1.241.124 1.687.371.446.247.78.585 1.002 1.014.221.426.332.906.332 1.44 0 .537-.112 1.02-.337 1.449a2.43 2.43 0 01-1.005 1.014c-.446.248-1.007.371-1.684.371h-2.139v-1.116h2.02c.429 0 .777-.074 1.044-.222.267-.151.463-.355.588-.614.125-.258.188-.552.188-.882 0-.329-.063-.622-.188-.878a1.346 1.346 0 00-.592-.6c-.267-.145-.619-.218-1.057-.218h-1.653v7.598h-1.317zm7.676-8.727h1.598l2.778 6.784h.102l2.779-6.784h1.598v8.727h-1.253v-6.315h-.081l-2.574 6.303h-1.04l-2.574-6.307h-.081v6.319h-1.252v-8.727zm10.769 0h1.598l2.779 6.784h.102l2.778-6.784h1.598v8.727h-1.253v-6.315h-.081l-2.573 6.303h-1.04l-2.574-6.307h-.081v6.319h-1.253v-8.727zm11.942 4.841v3.886h-1.275v-6.545h1.223v1.065h.081c.151-.346.387-.625.708-.835.324-.21.731-.315 1.223-.315.446 0 .836.093 1.172.281.335.185.595.46.78.827.184.366.277.819.277 1.359v4.163h-1.275v-4.01c0-.474-.123-.845-.37-1.112-.248-.27-.587-.405-1.019-.405-.295 0-.558.064-.788.192a1.374 1.374 0 00-.541.563c-.131.244-.196.539-.196.886zm4.33-4.841h1.496l2.28 3.967h.094l2.279-3.967h1.496l-3.166 5.301v3.426h-1.313v-3.426l-3.166-5.301zm10.465 8.859c-.633 0-1.179-.143-1.636-.43a2.856 2.856 0 01-1.049-1.197c-.244-.509-.366-1.091-.366-1.748 0-.664.125-1.251.375-1.76.25-.511.602-.91 1.057-1.197.454-.287.99-.43 1.606-.43.497 0 .941.092 1.33.277.389.181.703.437.942.767.241.329.385.714.43 1.154h-1.24a1.486 1.486 0 00-.469-.792c-.241-.222-.565-.333-.971-.333a1.58 1.58 0 00-.934.282 1.81 1.81 0 00-.618.792c-.147.341-.221.745-.221 1.211 0 .477.072.889.217 1.235.145.347.35.615.614.806.267.19.581.285.942.285.241 0 .46-.044.656-.132a1.33 1.33 0 00.498-.388c.137-.167.232-.369.286-.605h1.24a2.407 2.407 0 01-.413 1.134 2.389 2.389 0 01-.925.784c-.384.19-.834.285-1.351.285zm4.154-.132v-8.727h1.317v3.793h4.35v-3.793h1.321v8.727h-1.321v-3.805h-4.35v3.805h-1.317zm8.906 0v-8.727h3.111c.679 0 1.241.124 1.687.371.446.247.78.585 1.002 1.014.221.426.332.906.332 1.44 0 .537-.112 1.02-.336 1.449a2.438 2.438 0 01-1.006 1.014c-.446.248-1.007.371-1.683.371h-2.14v-1.116h2.02c.429 0 .777-.074 1.044-.222.267-.151.463-.355.588-.614.125-.258.188-.552.188-.882 0-.329-.063-.622-.188-.878a1.346 1.346 0 00-.592-.6c-.267-.145-.619-.218-1.057-.218h-1.653v7.598h-1.317zm7.373-1.704v-1.066l3.772-5.957h.839v1.568h-.533l-2.697 4.27v.068h5.169v1.117h-6.55zm4.138 1.704v-2.028l.009-.486v-6.213h1.248v8.727h-1.257zm6.842 0h-2.826v-8.727h2.915c.855 0 1.59.175 2.203.524a3.455 3.455 0 011.411 1.496c.329.648.494 1.425.494 2.331 0 .909-.166 1.69-.498 2.344a3.502 3.502 0 01-1.432 1.508c-.625.35-1.381.524-2.267.524zm-1.509-1.15h1.436c.665 0 1.218-.125 1.658-.375.44-.253.77-.618.989-1.095.218-.481.328-1.066.328-1.756 0-.685-.11-1.266-.328-1.743a2.321 2.321 0 00-.968-1.087c-.429-.247-.961-.37-1.598-.37h-1.517v6.426zm-194.676 19.15v-8.727h3.111c.676 0 1.237.117 1.683.349.449.233.784.556 1.006.968.221.409.332.882.332 1.419 0 .534-.112 1.004-.337 1.41a2.254 2.254 0 01-1.005.942c-.446.225-1.007.337-1.683.337h-2.357v-1.134h2.237c.426 0 .773-.061 1.04-.183.27-.122.467-.3.592-.533a1.75 1.75 0 00.188-.839c0-.33-.064-.615-.192-.857a1.24 1.24 0 00-.592-.554c-.267-.13-.618-.196-1.053-.196H259.6v7.598h-1.317zm4.308-3.937l2.157 3.937h-1.5l-2.114-3.937h1.457zm5.229 4.082c-.415 0-.79-.077-1.125-.23a1.897 1.897 0 01-.797-.677c-.193-.296-.29-.658-.29-1.087 0-.369.071-.673.213-.912.142-.239.334-.428.576-.567.241-.139.511-.244.809-.315.299-.071.603-.125.912-.162l.955-.111c.244-.031.422-.081.532-.149.111-.068.167-.179.167-.332v-.03c0-.372-.105-.661-.316-.865-.207-.205-.517-.307-.929-.307-.429 0-.767.095-1.014.285a1.537 1.537 0 00-.507.627l-1.197-.273c.142-.398.349-.719.622-.963.275-.247.592-.426.95-.537.358-.114.734-.17 1.129-.17.262 0 .539.031.831.093.296.06.571.171.827.333.258.162.47.393.635.694.165.299.247.686.247 1.164v4.346h-1.244v-.895h-.051a1.818 1.818 0 01-.371.486 1.996 1.996 0 01-.635.397 2.467 2.467 0 01-.929.157zm.277-1.023c.352 0 .653-.069.903-.208.253-.14.445-.321.576-.546.133-.227.2-.47.2-.728v-.844a.681.681 0 01-.264.128 4.239 4.239 0 01-.439.098l-.482.072-.392.051a3.125 3.125 0 00-.677.158c-.202.074-.364.18-.486.319-.119.137-.179.319-.179.546 0 .315.116.554.349.716.233.159.53.238.891.238zm9.069 3.333v-3.473h-.077a3.31 3.31 0 01-.332.477 1.853 1.853 0 01-.588.469c-.25.133-.574.2-.972.2-.528 0-1-.135-1.414-.405-.412-.272-.736-.66-.972-1.163-.233-.506-.349-1.112-.349-1.82 0-.707.118-1.312.353-1.815.239-.503.566-.888.98-1.155a2.55 2.55 0 011.411-.4c.406 0 .733.068.98.204.25.134.443.29.58.469.139.179.247.337.323.473h.107v-1.061h1.244v9h-1.274zm-1.687-3.414c.366 0 .676-.096.929-.289.255-.196.449-.468.579-.814.134-.347.201-.75.201-1.21a3.32 3.32 0 00-.197-1.194 1.741 1.741 0 00-.575-.796c-.253-.191-.565-.286-.937-.286-.384 0-.703.099-.959.298-.256.199-.449.47-.58.814a3.343 3.343 0 00-.191 1.164c0 .437.065.831.196 1.18.13.349.323.626.579.831.259.202.577.302.955.302zm4.777.959v-8.727h1.316v4.168h.107l3.66-4.168h1.658l-3.52 3.929 3.533 4.798h-1.585l-2.821-3.899-1.032 1.185v2.714h-1.316zm7.866-6.545h1.274v6.971c0 .438-.079.807-.238 1.108-.157.302-.39.53-.699.686-.307.157-.686.235-1.138.235h-.128c-.042 0-.086-.002-.132-.004v-1.096h.205c.301 0 .518-.081.652-.242.136-.16.204-.391.204-.695v-6.963zm.631-1.01a.808.808 0 01-.571-.222.72.72 0 01-.235-.537c0-.21.079-.389.235-.537a.802.802 0 01.571-.225c.221 0 .41.075.567.225a.706.706 0 01.238.537.713.713 0 01-.238.537.797.797 0 01-.567.222zm2.357 10.01v-9h1.245v1.061h.106c.074-.136.181-.294.32-.473s.332-.335.579-.469c.248-.136.574-.204.981-.204.528 0 1 .133 1.414.4.415.267.74.652.976 1.155.239.503.358 1.108.358 1.815 0 .708-.118 1.314-.354 1.82-.235.503-.559.891-.971 1.163-.412.27-.882.405-1.411.405-.397 0-.723-.067-.976-.2a1.853 1.853 0 01-.588-.469 3.592 3.592 0 01-.328-.477h-.076v3.473h-1.275zm1.249-5.727c0 .46.067.863.2 1.21.134.346.327.618.58.814.253.193.562.289.929.289.381 0 .699-.1.954-.302.256-.205.449-.482.58-.831.133-.349.2-.743.2-1.18 0-.432-.065-.82-.196-1.164a1.785 1.785 0 00-.579-.814c-.256-.199-.576-.298-.959-.298-.369 0-.682.095-.938.286-.253.19-.444.455-.575.796-.131.341-.196.739-.196 1.194zm9.021 3.392a3.293 3.293 0 01-1.44-.307 2.632 2.632 0 01-1.014-.852 2.25 2.25 0 01-.405-1.236h1.278c.032.375.198.683.499.924.301.242.662.363 1.082.363.336 0 .632-.077.891-.23.261-.157.466-.371.614-.644.15-.273.225-.584.225-.933 0-.355-.076-.672-.23-.95a1.693 1.693 0 00-.635-.657 1.793 1.793 0 00-.92-.243c-.264 0-.53.046-.797.137-.267.091-.483.21-.648.358l-1.206-.179.49-4.398h4.799v1.129h-3.703l-.277 2.442h.051c.17-.165.396-.303.677-.413.284-.111.588-.166.912-.166a2.67 2.67 0 012.404 1.414c.241.435.36.935.358 1.5.002.566-.125 1.07-.384 1.513a2.778 2.778 0 01-1.065 1.048c-.452.253-.97.38-1.556.38z" fill="#3F5878"/><rect opacity=".3" x="507.151" y="144.952" width="27.285" height="27.285" rx="6.821" fill="#C6D5EA"/><path d="M523.067 159.106v2.387c0 1.99-.796 2.786-2.785 2.786h-2.388c-1.989 0-2.785-.796-2.785-2.786v-2.387c0-1.99.796-2.785 2.785-2.785h2.388c1.989 0 2.785.795 2.785 2.785z" stroke="#859AB5" stroke-width=".853" stroke-linecap="round" stroke-linejoin="round"/><path d="M526.478 155.695v2.388c0 1.989-.796 2.785-2.786 2.785h-.625v-1.762c0-1.989-.796-2.785-2.785-2.785h-1.762v-.626c0-1.989.795-2.785 2.785-2.785h2.387c1.99 0 2.786.796 2.786 2.785z" stroke="#859AB5" stroke-width=".853" stroke-linecap="round" stroke-linejoin="round"/><path d="M171.236 151.773h-2.588v2.587h2.588v-2.587z" fill="#3F5878"/><path d="M171.236 154.358h-2.588v2.588h2.588v-2.588zm0 2.589h-2.588v2.588h2.588v-2.588zm0 2.589h-2.588v2.588h2.588v-2.588z" fill="#3F5878"/><path d="M171.236 162.123h-2.588v2.587h2.588v-2.587zm0 2.587h-2.588v2.587h2.588v-2.587zm0 2.587h-2.588v2.587h2.588v-2.587zm0 5.174h-2.588v2.588h2.588v-2.588zm0 7.762h-2.588v2.588h2.588v-2.588zm0 2.59h-2.588v2.587h2.588v-2.587z" fill="#3F5878"/><path d="M171.236 185.408h-2.588v2.588h2.588v-2.588zm0 5.177h-2.588v2.588h2.588v-2.588z" fill="#3F5878"/><path d="M171.236 193.171h-2.588v2.588h2.588v-2.588zm0 15.524h-2.588v2.587h2.588v-2.587zm0 2.588h-2.588v2.587h2.588v-2.587zm0 2.588h-2.588v2.587h2.588v-2.587zm0 2.587h-2.588v2.587h2.588v-2.587zm0 2.587h-2.588v2.587h2.588v-2.587z" fill="#3F5878"/><path d="M171.236 221.631h-2.588v2.587h2.588v-2.587zm0 2.588h-2.588v2.587h2.588v-2.587zm2.584-72.446h-2.587v2.587h2.587v-2.587zm0 15.524h-2.587v2.587h2.587v-2.587zm0 5.174h-2.587v2.588h2.587v-2.588z" fill="#3F5878"/><path d="M173.82 175.058h-2.587v2.587h2.587v-2.587zm0 7.765h-2.587v2.587h2.587v-2.587z" fill="#3F5878"/><path d="M173.82 185.408h-2.587v2.588h2.587v-2.588zm0 2.588h-2.587v2.587h2.587v-2.587zm0 2.589h-2.587v2.588h2.587v-2.588z" fill="#3F5878"/><path d="M173.82 193.171h-2.587v2.588h2.587v-2.588z" fill="#3F5878"/><path d="M173.82 195.757h-2.587v2.587h2.587v-2.587zm0 12.938h-2.587v2.587h2.587v-2.587zm0 15.524h-2.587v2.587h2.587v-2.587zm2.596-72.446h-2.587v2.587h2.587v-2.587zm0 5.174h-2.587v2.588h2.587v-2.588zm0 2.589h-2.587v2.588h2.587v-2.588z" fill="#3F5878"/><path d="M176.416 162.123h-2.587v2.587h2.587v-2.587zm0 5.174h-2.587v2.587h2.587v-2.587zm0 7.761h-2.587v2.587h2.587v-2.587zm0 2.59h-2.587v2.587h2.587v-2.587zm0 5.175h-2.587v2.587h2.587v-2.587z" fill="#3F5878"/><path d="M176.416 185.408h-2.587v2.588h2.587v-2.588zm0 2.588h-2.587v2.587h2.587v-2.587zm0 10.352h-2.587v2.587h2.587v-2.587zm0 10.347h-2.587v2.587h2.587v-2.587zm0 5.176h-2.587v2.587h2.587v-2.587zm0 2.587h-2.587v2.587h2.587v-2.587zm0 2.587h-2.587v2.587h2.587v-2.587zm0 5.174h-2.587v2.587h2.587v-2.587zm2.581-72.446h-2.587v2.587h2.587v-2.587zm0 5.174h-2.587v2.588h2.587v-2.588zm0 2.589h-2.587v2.588h2.587v-2.588z" fill="#3F5878"/><path d="M178.997 162.123h-2.587v2.587h2.587v-2.587zm0 5.174h-2.587v2.587h2.587v-2.587zm0 5.174h-2.587v2.588h2.587v-2.588zm0 5.177h-2.587v2.587h2.587v-2.587zm0 7.76h-2.587v2.588h2.587v-2.588zm0 2.588h-2.587v2.587h2.587v-2.587zm0 5.175h-2.587v2.588h2.587v-2.588z" fill="#3F5878"/><path d="M178.997 195.757h-2.587v2.587h2.587v-2.587zm0 2.591h-2.587v2.587h2.587v-2.587zm0 5.172h-2.587v2.587h2.587v-2.587zm0 5.175h-2.587v2.587h2.587v-2.587zm0 5.176h-2.587v2.587h2.587v-2.587zm0 2.587h-2.587v2.587h2.587v-2.587zm0 2.587h-2.587v2.587h2.587v-2.587zm0 5.174h-2.587v2.587h2.587v-2.587zm2.59-72.446H179v2.587h2.587v-2.587zm0 5.174H179v2.588h2.587v-2.588zm0 2.589H179v2.588h2.587v-2.588z" fill="#3F5878"/><path d="M181.587 162.123H179v2.587h2.587v-2.587zm0 5.174H179v2.587h2.587v-2.587zm0 5.174H179v2.588h2.587v-2.588z" fill="#3F5878"/><path d="M181.587 175.058H179v2.587h2.587v-2.587zm0 2.59H179v2.587h2.587v-2.587z" fill="#3F5878"/><path d="M181.587 180.233H179v2.588h2.587v-2.588zm0 2.59H179v2.587h2.587v-2.587z" fill="#3F5878"/><path d="M181.587 185.408H179v2.588h2.587v-2.588zm0 2.588H179v2.587h2.587v-2.587zm0 7.761H179v2.587h2.587v-2.587zm0 5.176H179v2.588h2.587v-2.588z" fill="#3F5878"/><path d="M181.587 203.52H179v2.587h2.587v-2.587zm0 5.175H179v2.587h2.587v-2.587zm0 5.176H179v2.587h2.587v-2.587zm0 2.587H179v2.587h2.587v-2.587zm0 2.587H179v2.587h2.587v-2.587zm0 5.174H179v2.587h2.587v-2.587zm2.595-72.446h-2.587v2.587h2.587v-2.587zm0 15.524h-2.587v2.587h2.587v-2.587zm0 7.761h-2.587v2.587h2.587v-2.587zm0 2.59h-2.587v2.587h2.587v-2.587z" fill="#3F5878"/><path d="M184.182 180.233h-2.587v2.588h2.587v-2.588zm0 2.59h-2.587v2.587h2.587v-2.587z" fill="#3F5878"/><path d="M184.182 185.408h-2.587v2.588h2.587v-2.588zm0 10.349h-2.587v2.587h2.587v-2.587zm0 2.591h-2.587v2.587h2.587v-2.587zm0 5.172h-2.587v2.587h2.587v-2.587zm0 5.175h-2.587v2.587h2.587v-2.587zm0 15.524h-2.587v2.587h2.587v-2.587zm2.581-72.446h-2.588v2.587h2.588v-2.587z" fill="#3F5878"/><path d="M186.763 154.358h-2.588v2.588h2.588v-2.588zm0 2.589h-2.588v2.588h2.588v-2.588zm0 2.589h-2.588v2.588h2.588v-2.588z" fill="#3F5878"/><path d="M186.763 162.123h-2.588v2.587h2.588v-2.587zm0 2.587h-2.588v2.587h2.588v-2.587zm0 2.587h-2.588v2.587h2.588v-2.587zm0 5.174h-2.588v2.588h2.588v-2.588zm0 5.177h-2.588v2.587h2.588v-2.587zm0 5.175h-2.588v2.587h2.588v-2.587zm0 5.173h-2.588v2.587h2.588v-2.587zm0 5.175h-2.588v2.588h2.588v-2.588zm0 5.177h-2.588v2.587h2.588v-2.587zm0 5.172h-2.588v2.587h2.588v-2.587zm0 5.175h-2.588v2.587h2.588v-2.587zm0 2.588h-2.588v2.587h2.588v-2.587zm0 2.588h-2.588v2.587h2.588v-2.587zm0 2.587h-2.588v2.587h2.588v-2.587zm0 2.587h-2.588v2.587h2.588v-2.587z" fill="#3F5878"/><path d="M186.763 221.631h-2.588v2.587h2.588v-2.587zm0 2.588h-2.588v2.587h2.588v-2.587zm2.586-46.571h-2.587v2.587h2.587v-2.587zm0 5.175h-2.587v2.587h2.587v-2.587z" fill="#3F5878"/><path d="M189.349 185.408h-2.587v2.588h2.587v-2.588zm0 2.588h-2.587v2.587h2.587v-2.587zm0 2.589h-2.587v2.588h2.587v-2.588zm0 7.763h-2.587v2.587h2.587v-2.587zm2.585-46.575h-2.587v2.587h2.587v-2.587zm0 15.524h-2.587v2.587h2.587v-2.587zm0 2.588h-2.587v2.588h2.587v-2.588zm0 10.348h-2.587v2.588h2.587v-2.588z" fill="#3F5878"/><path d="M191.934 190.585h-2.587v2.588h2.587v-2.588zm0 7.763h-2.587v2.587h2.587v-2.587z" fill="#3F5878"/><path d="M191.934 200.933h-2.587v2.588h2.587v-2.588zm0 5.175h-2.587v2.587h2.587v-2.587zm0 7.763h-2.587v2.587h2.587v-2.587zm0 2.587h-2.587v2.587h2.587v-2.587zm0 5.173h-2.587v2.587h2.587v-2.587zm0 2.588h-2.587v2.587h2.587v-2.587zm2.586-72.446h-2.587v2.587h2.587v-2.587zm0 5.174h-2.587v2.588h2.587v-2.588zm0 2.589h-2.587v2.588h2.587v-2.588z" fill="#3F5878"/><path d="M194.52 162.123h-2.587v2.587h2.587v-2.587zm0 2.587h-2.587v2.587h2.587v-2.587zm0 12.938h-2.587v2.587h2.587v-2.587zm0 5.175h-2.587v2.587h2.587v-2.587z" fill="#3F5878"/><path d="M194.52 185.408h-2.587v2.588h2.587v-2.588zm0 5.177h-2.587v2.588h2.587v-2.588zm0 12.935h-2.587v2.587h2.587v-2.587zm0 5.175h-2.587v2.587h2.587v-2.587zm0 5.176h-2.587v2.587h2.587v-2.587zm0 2.587h-2.587v2.587h2.587v-2.587zm0 2.587h-2.587v2.587h2.587v-2.587z" fill="#3F5878"/><path d="M194.52 221.631h-2.587v2.587h2.587v-2.587zm2.587-56.921h-2.587v2.587h2.587v-2.587zm0 2.587h-2.587v2.587h2.587v-2.587zm0 2.588h-2.587v2.588h2.587v-2.588zm0 5.173h-2.587v2.587h2.587v-2.587zm0 2.59h-2.587v2.587h2.587v-2.587zm0 5.175h-2.587v2.587h2.587v-2.587zm0 5.173h-2.587v2.587h2.587v-2.587zm0 7.761h-2.587v2.587h2.587v-2.587zm0 10.351h-2.587v2.587h2.587v-2.587zm0 2.587h-2.587v2.587h2.587v-2.587zm0 5.176h-2.587v2.587h2.587v-2.587zm0 5.174h-2.587v2.587h2.587v-2.587zm0 5.174h-2.587v2.587h2.587v-2.587zm2.594-59.509h-2.587v2.587h2.587v-2.587zm0 10.348h-2.587v2.587h2.587v-2.587zm0 2.59h-2.587v2.587h2.587v-2.587zm0 5.175h-2.587v2.587h2.587v-2.587z" fill="#3F5878"/><path d="M199.701 185.408h-2.587v2.588h2.587v-2.588zm0 7.763h-2.587v2.588h2.587v-2.588zm0 5.177h-2.587v2.587h2.587v-2.587zm0 5.172h-2.587v2.587h2.587v-2.587zm0 2.588h-2.587v2.587h2.587v-2.587zm0 2.587h-2.587v2.587h2.587v-2.587zm0 7.763h-2.587v2.587h2.587v-2.587zm2.586-64.685H199.7v2.587h2.587v-2.587z" fill="#3F5878"/><path d="M202.287 154.358H199.7v2.588h2.587v-2.588zm0 7.765H199.7v2.587h2.587v-2.587zm0 5.174H199.7v2.587h2.587v-2.587zm0 2.588H199.7v2.588h2.587v-2.588z" fill="#3F5878"/><path d="M202.287 172.471H199.7v2.588h2.587v-2.588zm0 5.177H199.7v2.587h2.587v-2.587z" fill="#3F5878"/><path d="M202.287 180.233H199.7v2.588h2.587v-2.588zm0 2.59H199.7v2.587h2.587v-2.587zm0 5.173H199.7v2.587h2.587v-2.587zm0 7.761H199.7v2.587h2.587v-2.587zm0 2.591H199.7v2.587h2.587v-2.587z" fill="#3F5878"/><path d="M202.287 200.933H199.7v2.588h2.587v-2.588zm0 5.175H199.7v2.587h2.587v-2.587zm0 7.763H199.7v2.587h2.587v-2.587zm0 2.587H199.7v2.587h2.587v-2.587zm0 2.587H199.7v2.587h2.587v-2.587zm0 5.174H199.7v2.587h2.587v-2.587zm2.587-67.272h-2.587v2.588h2.587v-2.588zm0 2.589h-2.587v2.588h2.587v-2.588z" fill="#3F5878"/><path d="M204.874 162.123h-2.587v2.587h2.587v-2.587zm0 7.762h-2.587v2.588h2.587v-2.588zm0 25.872h-2.587v2.587h2.587v-2.587zm0 2.591h-2.587v2.587h2.587v-2.587z" fill="#3F5878"/><path d="M204.874 200.933h-2.587v2.588h2.587v-2.588zm0 5.175h-2.587v2.587h2.587v-2.587zm2.589-54.335h-2.588v2.587h2.588v-2.587zm0 10.35h-2.588v2.587h2.588v-2.587zm0 2.587h-2.588v2.587h2.588v-2.587zm0 2.587h-2.588v2.587h2.588v-2.587zm0 5.174h-2.588v2.588h2.588v-2.588z" fill="#3F5878"/><path d="M207.463 175.058h-2.588v2.587h2.588v-2.587zm0 5.175h-2.588v2.588h2.588v-2.588zm0 2.59h-2.588v2.587h2.588v-2.587z" fill="#3F5878"/><path d="M207.463 185.408h-2.588v2.588h2.588v-2.588zm0 2.588h-2.588v2.587h2.588v-2.587zm0 7.761h-2.588v2.587h2.588v-2.587zm0 2.591h-2.588v2.587h2.588v-2.587z" fill="#3F5878"/><path d="M207.463 200.933h-2.588v2.588h2.588v-2.588z" fill="#3F5878"/><path d="M207.463 203.52h-2.588v2.587h2.588v-2.587zm0 5.175h-2.588v2.587h2.588v-2.587zm0 7.763h-2.588v2.587h2.588v-2.587zm2.586-56.922h-2.587v2.588h2.587v-2.588zm0 10.349h-2.587v2.588h2.587v-2.588zm0 5.173h-2.587v2.587h2.587v-2.587zm0 2.59h-2.587v2.587h2.587v-2.587zm0 7.76h-2.587v2.588h2.587v-2.588zm0 2.588h-2.587v2.587h2.587v-2.587zm0 7.761h-2.587v2.587h2.587v-2.587zm0 2.591h-2.587v2.587h2.587v-2.587z" fill="#3F5878"/><path d="M210.049 203.52h-2.587v2.587h2.587v-2.587zm0 2.588h-2.587v2.587h2.587v-2.587zm0 2.587h-2.587v2.587h2.587v-2.587zm0 2.588h-2.587v2.587h2.587v-2.587zm0 5.175h-2.587v2.587h2.587v-2.587zm0 2.587h-2.587v2.587h2.587v-2.587z" fill="#3F5878"/><path d="M210.049 221.631h-2.587v2.587h2.587v-2.587zm2.587-69.858h-2.588v2.587h2.588v-2.587z" fill="#3F5878"/><path d="M212.636 154.358h-2.588v2.588h2.588v-2.588zm0 2.589h-2.588v2.588h2.588v-2.588zm0 2.589h-2.588v2.588h2.588v-2.588z" fill="#3F5878"/><path d="M212.636 162.123h-2.588v2.587h2.588v-2.587zm0 2.587h-2.588v2.587h2.588v-2.587zm0 2.587h-2.588v2.587h2.588v-2.587zm0 2.588h-2.588v2.588h2.588v-2.588z" fill="#3F5878"/><path d="M212.636 172.471h-2.588v2.588h2.588v-2.588zm0 5.177h-2.588v2.587h2.588v-2.587z" fill="#3F5878"/><path d="M212.636 180.233h-2.588v2.588h2.588v-2.588zm0 2.59h-2.588v2.587h2.588v-2.587z" fill="#3F5878"/><path d="M212.636 185.408h-2.588v2.588h2.588v-2.588zm0 2.588h-2.588v2.587h2.588v-2.587zm0 12.937h-2.588v2.588h2.588v-2.588z" fill="#3F5878"/><path d="M212.636 203.52h-2.588v2.587h2.588v-2.587zm0 10.351h-2.588v2.587h2.588v-2.587zm0 2.587h-2.588v2.587h2.588v-2.587zm2.586-64.685h-2.587v2.587h2.587v-2.587zm0 7.763h-2.587v2.588h2.587v-2.588zm0 12.935h-2.587v2.588h2.587v-2.588z" fill="#3F5878"/><path d="M215.222 175.058h-2.587v2.587h2.587v-2.587zm0 2.59h-2.587v2.587h2.587v-2.587z" fill="#3F5878"/><path d="M215.222 180.233h-2.587v2.588h2.587v-2.588zm0 18.115h-2.587v2.587h2.587v-2.587zm0 5.172h-2.587v2.587h2.587v-2.587zm0 2.588h-2.587v2.587h2.587v-2.587zm0 5.175h-2.587v2.587h2.587v-2.587zm0 5.175h-2.587v2.587h2.587v-2.587zm0 2.587h-2.587v2.587h2.587v-2.587zm2.585-67.272h-2.587v2.587h2.587v-2.587zm0 5.174h-2.587v2.588h2.587v-2.588zm0 5.176h-2.587v2.587h2.587v-2.587zm0 5.174h-2.587v2.587h2.587v-2.587zm0 7.761h-2.587v2.587h2.587v-2.587zm0 10.35h-2.587v2.588h2.587v-2.588zm0 2.588h-2.587v2.587h2.587v-2.587zm0 7.761h-2.587v2.587h2.587v-2.587z" fill="#3F5878"/><path d="M217.807 198.348h-2.587v2.587h2.587v-2.587zm0 7.76h-2.587v2.587h2.587v-2.587zm0 5.175h-2.587v2.587h2.587v-2.587zm0 2.588h-2.587v2.587h2.587v-2.587zm0 2.587h-2.587v2.587h2.587v-2.587zm0 5.173h-2.587v2.587h2.587v-2.587zm2.59-67.273h-2.587v2.588h2.587v-2.588zm0 7.765h-2.587v2.587h2.587v-2.587zm0 7.762h-2.587v2.588h2.587v-2.588z" fill="#3F5878"/><path d="M220.397 172.471h-2.587v2.588h2.587v-2.588z" fill="#3F5878"/><path d="M220.397 175.058h-2.587v2.587h2.587v-2.587zm0 5.175h-2.587v2.588h2.587v-2.588zm0 2.59h-2.587v2.587h2.587v-2.587zm0 5.173h-2.587v2.587h2.587v-2.587zm0 5.175h-2.587v2.588h2.587v-2.588z" fill="#3F5878"/><path d="M220.397 195.757h-2.587v2.587h2.587v-2.587zm0 2.591h-2.587v2.587h2.587v-2.587z" fill="#3F5878"/><path d="M220.397 200.933h-2.587v2.588h2.587v-2.588z" fill="#3F5878"/><path d="M220.397 203.52h-2.587v2.587h2.587v-2.587zm0 2.588h-2.587v2.587h2.587v-2.587zm0 2.587h-2.587v2.587h2.587v-2.587zm0 2.588h-2.587v2.587h2.587v-2.587zm0 2.588h-2.587v2.587h2.587v-2.587zm0 5.174h-2.587v2.587h2.587v-2.587zm0 5.174h-2.587v2.587h2.587v-2.587zm2.587-69.861h-2.588v2.588h2.588v-2.588zm0 5.178h-2.588v2.588h2.588v-2.588zm0 5.174h-2.588v2.587h2.588v-2.587zm0 2.587h-2.588v2.587h2.588v-2.587zm0 5.174h-2.588v2.588h2.588v-2.588zm0 15.525h-2.588v2.587h2.588v-2.587zm0 5.175h-2.588v2.588h2.588v-2.588zm0 5.177h-2.588v2.587h2.588v-2.587z" fill="#3F5878"/><path d="M222.984 200.933h-2.588v2.588h2.588v-2.588z" fill="#3F5878"/><path d="M222.984 203.52h-2.588v2.587h2.588v-2.587zm0 2.588h-2.588v2.587h2.588v-2.587zm0 2.587h-2.588v2.587h2.588v-2.587zm0 2.588h-2.588v2.587h2.588v-2.587zm0 2.588h-2.588v2.587h2.588v-2.587zm0 2.587h-2.588v2.587h2.588v-2.587zm0 7.761h-2.588v2.587h2.588v-2.587zm2.586-33.634h-2.587v2.588h2.587v-2.588zm0 5.172h-2.587v2.587h2.587v-2.587zm0 2.591h-2.587v2.587h2.587v-2.587z" fill="#3F5878"/><path d="M225.57 200.933h-2.587v2.588h2.587v-2.588z" fill="#3F5878"/><path d="M225.57 203.52h-2.587v2.587h2.587v-2.587zm0 10.351h-2.587v2.587h2.587v-2.587zm0 2.587h-2.587v2.587h2.587v-2.587zm0 5.173h-2.587v2.587h2.587v-2.587zm2.585-69.858h-2.587v2.587h2.587v-2.587z" fill="#3F5878"/><path d="M228.155 154.358h-2.587v2.588h2.587v-2.588zm0 2.589h-2.587v2.588h2.587v-2.588zm0 2.589h-2.587v2.588h2.587v-2.588z" fill="#3F5878"/><path d="M228.155 162.123h-2.587v2.587h2.587v-2.587zm0 2.587h-2.587v2.587h2.587v-2.587zm0 2.587h-2.587v2.587h2.587v-2.587zm0 5.174h-2.587v2.588h2.587v-2.588zm0 5.177h-2.587v2.587h2.587v-2.587z" fill="#3F5878"/><path d="M228.155 180.233h-2.587v2.588h2.587v-2.588zm0 2.59h-2.587v2.587h2.587v-2.587z" fill="#3F5878"/><path d="M228.155 185.408h-2.587v2.588h2.587v-2.588zm0 2.588h-2.587v2.587h2.587v-2.587zm0 2.589h-2.587v2.588h2.587v-2.588zm0 7.763h-2.587v2.587h2.587v-2.587z" fill="#3F5878"/><path d="M228.155 200.933h-2.587v2.588h2.587v-2.588z" fill="#3F5878"/><path d="M228.155 203.52h-2.587v2.587h2.587v-2.587zm0 5.175h-2.587v2.587h2.587v-2.587zm0 5.176h-2.587v2.587h2.587v-2.587zm0 7.76h-2.587v2.587h2.587v-2.587zm0 2.588h-2.587v2.587h2.587v-2.587zm2.592-72.446h-2.587v2.587h2.587v-2.587zm0 15.524h-2.587v2.587h2.587v-2.587zm0 7.761h-2.587v2.587h2.587v-2.587zm0 2.59h-2.587v2.587h2.587v-2.587z" fill="#3F5878"/><path d="M230.747 180.233h-2.587v2.588h2.587v-2.588zm0 5.175h-2.587v2.588h2.587v-2.588zm0 2.588h-2.587v2.587h2.587v-2.587zm0 2.589h-2.587v2.588h2.587v-2.588z" fill="#3F5878"/><path d="M230.747 193.171h-2.587v2.588h2.587v-2.588zm0 10.349h-2.587v2.587h2.587v-2.587zm0 10.351h-2.587v2.587h2.587v-2.587zm0 5.174h-2.587v2.587h2.587v-2.587z" fill="#3F5878"/><path d="M230.747 221.631h-2.587v2.587h2.587v-2.587zm0 2.588h-2.587v2.587h2.587v-2.587zm2.587-72.446h-2.587v2.587h2.587v-2.587zm0 5.174h-2.587v2.588h2.587v-2.588zm0 2.589h-2.587v2.588h2.587v-2.588z" fill="#3F5878"/><path d="M233.334 162.123h-2.587v2.587h2.587v-2.587zm0 5.174h-2.587v2.587h2.587v-2.587zm0 7.761h-2.587v2.587h2.587v-2.587zm0 2.59h-2.587v2.587h2.587v-2.587z" fill="#3F5878"/><path d="M233.334 180.233h-2.587v2.588h2.587v-2.588zm0 5.175h-2.587v2.588h2.587v-2.588zm0 2.588h-2.587v2.587h2.587v-2.587zm0 7.761h-2.587v2.587h2.587v-2.587zm0 2.591h-2.587v2.587h2.587v-2.587zm0 5.172h-2.587v2.587h2.587v-2.587zm0 2.588h-2.587v2.587h2.587v-2.587zm0 2.587h-2.587v2.587h2.587v-2.587zm0 2.588h-2.587v2.587h2.587v-2.587zm0 2.588h-2.587v2.587h2.587v-2.587zm0 5.174h-2.587v2.587h2.587v-2.587zm0 5.174h-2.587v2.587h2.587v-2.587zm2.586-72.446h-2.587v2.587h2.587v-2.587zm0 5.174h-2.587v2.588h2.587v-2.588zm0 2.589h-2.587v2.588h2.587v-2.588z" fill="#3F5878"/><path d="M235.92 162.123h-2.587v2.587h2.587v-2.587zm0 5.174h-2.587v2.587h2.587v-2.587zm0 12.936h-2.587v2.588h2.587v-2.588zm0 5.175h-2.587v2.588h2.587v-2.588zm0 7.763h-2.587v2.588h2.587v-2.588zm0 5.177h-2.587v2.587h2.587v-2.587z" fill="#3F5878"/><path d="M235.92 200.933h-2.587v2.588h2.587v-2.588z" fill="#3F5878"/><path d="M235.92 203.52h-2.587v2.587h2.587v-2.587zm0 2.588h-2.587v2.587h2.587v-2.587zm0 2.587h-2.587v2.587h2.587v-2.587zm0 5.176h-2.587v2.587h2.587v-2.587zm0 7.76h-2.587v2.587h2.587v-2.587zm0 2.588h-2.587v2.587h2.587v-2.587zm2.587-72.446h-2.587v2.587h2.587v-2.587zm0 5.174h-2.587v2.588h2.587v-2.588zm0 2.589h-2.587v2.588h2.587v-2.588z" fill="#3F5878"/><path d="M238.507 162.123h-2.587v2.587h2.587v-2.587zm0 5.174h-2.587v2.587h2.587v-2.587zm0 7.761h-2.587v2.587h2.587v-2.587zm0 2.59h-2.587v2.587h2.587v-2.587zm0 7.76h-2.587v2.588h2.587v-2.588zm0 2.588h-2.587v2.587h2.587v-2.587zm0 2.589h-2.587v2.588h2.587v-2.588zm0 5.172h-2.587v2.587h2.587v-2.587zm0 5.176h-2.587v2.588h2.587v-2.588z" fill="#3F5878"/><path d="M238.507 203.52h-2.587v2.587h2.587v-2.587zm0 15.525h-2.587v2.587h2.587v-2.587z" fill="#3F5878"/><path d="M238.507 221.631h-2.587v2.587h2.587v-2.587zm2.583-69.858h-2.587v2.587h2.587v-2.587zm0 15.524h-2.587v2.587h2.587v-2.587zm0 7.761h-2.587v2.587h2.587v-2.587zm0 10.35h-2.587v2.588h2.587v-2.588zm0 10.349h-2.587v2.587h2.587v-2.587zm0 7.763h-2.587v2.587h2.587v-2.587zm0 7.763h-2.587v2.587h2.587v-2.587zm0 5.175h-2.587v2.587h2.587v-2.587z" fill="#3F5878"/><path d="M241.09 219.045h-2.587v2.587h2.587v-2.587zm2.594-67.272h-2.587v2.587h2.587v-2.587z" fill="#3F5878"/><path d="M243.684 154.358h-2.587v2.588h2.587v-2.588zm0 2.589h-2.587v2.588h2.587v-2.588zm0 2.589h-2.587v2.588h2.587v-2.588z" fill="#3F5878"/><path d="M243.684 162.123h-2.587v2.587h2.587v-2.587zm0 2.587h-2.587v2.587h2.587v-2.587zm0 2.587h-2.587v2.587h2.587v-2.587zm0 5.174h-2.587v2.588h2.587v-2.588zm0 7.762h-2.587v2.588h2.587v-2.588zm0 2.59h-2.587v2.587h2.587v-2.587z" fill="#3F5878"/><path d="M243.684 185.408h-2.587v2.588h2.587v-2.588zm0 2.588h-2.587v2.587h2.587v-2.587zm0 2.589h-2.587v2.588h2.587v-2.588zm0 7.763h-2.587v2.587h2.587v-2.587zm0 12.935h-2.587v2.587h2.587v-2.587zm0 2.588h-2.587v2.587h2.587v-2.587zm0 2.587h-2.587v2.587h2.587v-2.587zm0 2.587h-2.587v2.587h2.587v-2.587z" fill="#3F5878"/><path d="M243.684 221.631h-2.587v2.587h2.587v-2.587z" fill="#3F5878"/><path opacity=".3" d="M204.46 288.197c0-15.069 12.216-27.285 27.285-27.285h107.434c15.069 0 27.285 12.216 27.285 27.285H204.46z" fill="#C6D5EA" fill-opacity=".3"/><path d="M341.239 274.917a.604.604 0 00-.807 0l-2.532 2.273-2.531-2.273a.604.604 0 00-.807.897l2.768 2.491a.853.853 0 001.141 0l2.768-2.491a.604.604 0 000-.897z" fill="#859AB5"/><path opacity=".8" d="M229.283 281.586l-2.408-8.681h1.377l1.692 6.723h.08l1.76-6.723h1.365l1.759 6.727h.08l1.687-6.727h1.382l-2.412 8.681h-1.318l-1.827-6.502h-.068l-1.827 6.502h-1.322zm11.121.144a2.65 2.65 0 01-1.119-.229 1.88 1.88 0 01-.793-.674c-.192-.294-.288-.654-.288-1.081 0-.367.07-.669.212-.907a1.57 1.57 0 01.572-.564c.24-.138.508-.243.805-.313.297-.071.599-.125.907-.161l.95-.11c.243-.032.42-.081.53-.149.11-.068.165-.178.165-.33v-.03c0-.37-.104-.657-.314-.861-.206-.203-.514-.305-.924-.305-.426 0-.763.095-1.009.284-.243.187-.411.394-.504.623l-1.191-.271a2.28 2.28 0 01.619-.958c.274-.246.589-.424.945-.534.356-.113.731-.17 1.123-.17.26 0 .536.031.827.094.294.059.568.169.822.33.258.161.468.392.632.691.164.297.246.683.246 1.157v4.324h-1.238v-.89h-.051a1.797 1.797 0 01-.369.483c-.164.158-.374.29-.631.394a2.44 2.44 0 01-.924.157zm.275-1.017c.351 0 .65-.069.899-.208.251-.138.442-.319.572-.542.133-.226.199-.468.199-.725v-.84c-.045.046-.132.088-.262.128a4.268 4.268 0 01-.437.097 29.87 29.87 0 01-.869.123 3.098 3.098 0 00-.674.157 1.142 1.142 0 00-.483.318c-.119.135-.178.316-.178.542 0 .314.115.551.347.713.232.158.527.237.886.237zm5.893-7.808v8.681h-1.267v-8.681h1.267zm2.973 0v8.681h-1.267v-8.681h1.267zm4.511 8.813c-.641 0-1.194-.137-1.657-.412a2.782 2.782 0 01-1.068-1.165c-.249-.503-.373-1.093-.373-1.768 0-.667.124-1.255.373-1.763a2.899 2.899 0 011.051-1.192c.452-.285.981-.428 1.585-.428.368 0 .724.061 1.069.183.344.121.654.312.928.572.274.26.49.598.649 1.013.158.413.237.914.237 1.505v.449h-5.176v-.949h3.934c0-.334-.068-.629-.203-.886a1.544 1.544 0 00-1.429-.84c-.356 0-.667.088-.933.263a1.77 1.77 0 00-.61.678 1.962 1.962 0 00-.212.903v.742c0 .435.076.806.229 1.111.155.305.372.538.648.699.277.158.601.238.971.238.24 0 .459-.034.657-.102a1.354 1.354 0 00.844-.827l1.199.216a2.168 2.168 0 01-.517.929 2.503 2.503 0 01-.928.614c-.37.145-.793.217-1.268.217zm7.24-6.643v1.017h-3.557v-1.017h3.557zm-2.603-1.56h1.267v6.159c0 .246.037.431.111.556a.574.574 0 00.284.25c.118.042.247.063.385.063.102 0 .191-.007.267-.021l.178-.034.229 1.047a2.51 2.51 0 01-.822.136 2.237 2.237 0 01-.933-.178 1.598 1.598 0 01-.699-.577c-.178-.26-.267-.586-.267-.979v-6.422zm8.779 3.15l-1.149.203a1.354 1.354 0 00-.229-.42 1.137 1.137 0 00-.415-.326 1.5 1.5 0 00-.657-.127c-.359 0-.659.08-.899.242-.24.158-.36.363-.36.614 0 .218.08.393.241.526.162.133.422.241.78.326l1.035.238c.599.138 1.045.351 1.339.64.294.288.441.662.441 1.123 0 .39-.113.738-.339 1.043-.223.302-.536.54-.937.712-.398.172-.86.259-1.386.259-.729 0-1.324-.156-1.785-.467-.46-.313-.743-.758-.847-1.335l1.225-.187c.076.32.233.561.47.725.238.161.547.242.929.242.415 0 .747-.086.996-.259.248-.175.373-.388.373-.64a.669.669 0 00-.229-.513c-.15-.138-.38-.243-.691-.313l-1.102-.242c-.608-.138-1.057-.359-1.348-.661-.289-.303-.433-.686-.433-1.149 0-.384.108-.721.323-1.009.214-.288.511-.513.89-.674a3.243 3.243 0 011.301-.246c.704 0 1.258.153 1.662.458.404.302.671.708.801 1.217zm5.049 1.318c0-1.063.14-2.04.419-2.933a8.757 8.757 0 011.225-2.472h1.162c-.209.28-.404.623-.585 1.03a9.795 9.795 0 00-.475 1.34c-.136.483-.242.985-.318 1.505a10.51 10.51 0 00.085 3.573c.133.69.312 1.33.538 1.92.226.591.478 1.073.755 1.446h-1.162a8.751 8.751 0 01-1.225-2.471c-.279-.893-.419-1.873-.419-2.938zm6.768 3.735c-.61 0-1.143-.14-1.598-.42a2.835 2.835 0 01-1.06-1.174c-.251-.503-.377-1.091-.377-1.764 0-.675.126-1.266.377-1.772a2.833 2.833 0 011.06-1.178c.455-.28.988-.42 1.598-.42.611 0 1.143.14 1.598.42.455.28.809.673 1.06 1.178.252.506.377 1.097.377 1.772 0 .673-.125 1.261-.377 1.764a2.828 2.828 0 01-1.06 1.174c-.455.28-.987.42-1.598.42zm.005-1.064c.395 0 .723-.105.983-.314.26-.209.452-.488.577-.835a3.33 3.33 0 00.19-1.149c0-.415-.063-.797-.19-1.144a1.869 1.869 0 00-.577-.844c-.26-.212-.588-.318-.983-.318-.399 0-.73.106-.992.318-.26.212-.454.493-.581.844a3.38 3.38 0 00-.187 1.144c0 .418.063.801.187 1.149.127.347.321.626.581.835.262.209.593.314.992.314zm4.445 3.374v-8.953h1.238v1.056h.106c.073-.136.179-.293.318-.471.138-.178.331-.333.576-.466.246-.136.571-.204.975-.204.526 0 .995.133 1.408.399.412.265.736.648.971 1.148.237.501.356 1.103.356 1.806 0 .704-.118 1.307-.352 1.81-.235.501-.557.886-.967 1.158-.41.268-.877.402-1.403.402-.396 0-.719-.066-.971-.199a1.855 1.855 0 01-.585-.466 3.487 3.487 0 01-.326-.475h-.076v3.455h-1.268zm1.242-5.697c0 .457.067.859.2 1.203.132.345.324.615.576.81.252.192.56.288.924.288.379 0 .695-.1.95-.301.254-.203.446-.479.576-.826.133-.348.199-.739.199-1.174 0-.43-.065-.816-.195-1.158a1.77 1.77 0 00-.576-.809c-.254-.198-.572-.297-.954-.297-.367 0-.678.095-.932.284a1.741 1.741 0 00-.573.793c-.13.339-.195.734-.195 1.187zm9.165-3.256v1.017h-3.556v-1.017h3.556zm-2.603-1.56h1.268v6.159c0 .246.036.431.11.556a.574.574 0 00.284.25c.119.042.247.063.386.063.101 0 .19-.007.267-.021l.178-.034.229 1.047a2.502 2.502 0 01-.823.136 2.23 2.23 0 01-.932-.178 1.601 1.601 0 01-.7-.577c-.178-.26-.267-.586-.267-.979v-6.422zm4.005 8.071v-6.511h1.268v6.511h-1.268zm.64-7.516a.805.805 0 01-.568-.22.719.719 0 01-.233-.534.71.71 0 01.233-.534.797.797 0 01.568-.225c.221 0 .409.075.564.225a.703.703 0 01.237.534.712.712 0 01-.237.534.79.79 0 01-.564.22zm5.075 7.648c-.61 0-1.143-.14-1.598-.42a2.826 2.826 0 01-1.059-1.174c-.252-.503-.378-1.091-.378-1.764 0-.675.126-1.266.378-1.772a2.824 2.824 0 011.059-1.178c.455-.28.988-.42 1.598-.42.611 0 1.144.14 1.598.42.455.28.809.673 1.06 1.178.252.506.378 1.097.378 1.772 0 .673-.126 1.261-.378 1.764a2.828 2.828 0 01-1.06 1.174c-.454.28-.987.42-1.598.42zm.005-1.064c.395 0 .723-.105.983-.314.26-.209.452-.488.577-.835a3.33 3.33 0 00.19-1.149c0-.415-.063-.797-.19-1.144a1.869 1.869 0 00-.577-.844c-.26-.212-.588-.318-.983-.318-.399 0-.729.106-.992.318-.26.212-.454.493-.581.844a3.38 3.38 0 00-.187 1.144c0 .418.063.801.187 1.149.127.347.321.626.581.835.263.209.593.314.992.314zm5.713-2.934v3.866h-1.268v-6.511h1.217v1.06h.08c.15-.345.385-.622.704-.831.322-.209.728-.314 1.217-.314.443 0 .832.094 1.165.28.334.184.593.458.776.822.184.365.276.816.276 1.353v4.141h-1.268v-3.989c0-.472-.123-.84-.369-1.106-.245-.269-.583-.403-1.013-.403-.294 0-.555.064-.784.191a1.375 1.375 0 00-.538.559c-.13.244-.195.537-.195.882zm7.761 4.01c-.412 0-.785-.076-1.119-.229a1.882 1.882 0 01-.792-.674c-.193-.294-.289-.654-.289-1.081 0-.367.071-.669.212-.907.142-.237.332-.425.573-.564.24-.138.508-.243.805-.313.297-.071.599-.125.907-.161l.95-.11c.243-.032.419-.081.53-.149.11-.068.165-.178.165-.33v-.03c0-.37-.105-.657-.314-.861-.206-.203-.514-.305-.924-.305-.427 0-.763.095-1.009.284-.243.187-.411.394-.504.623l-1.191-.271a2.28 2.28 0 01.619-.958c.274-.246.589-.424.945-.534.356-.113.73-.17 1.123-.17.26 0 .536.031.827.094.294.059.568.169.822.33.257.161.468.392.632.691.164.297.246.683.246 1.157v4.324h-1.238v-.89h-.051a1.797 1.797 0 01-.369.483c-.164.158-.374.29-.631.394a2.449 2.449 0 01-.925.157zm.276-1.017c.35 0 .65-.069.899-.208.251-.138.442-.319.572-.542.133-.226.199-.468.199-.725v-.84c-.045.046-.133.088-.263.128a4.186 4.186 0 01-.436.097 29.87 29.87 0 01-.869.123 3.098 3.098 0 00-.674.157 1.151 1.151 0 00-.484.318c-.118.135-.178.316-.178.542 0 .314.116.551.348.713.232.158.527.237.886.237zm5.893-7.808v8.681h-1.267v-8.681h1.267zm4.143 5.078c0 1.065-.14 2.045-.42 2.938a8.751 8.751 0 01-1.225 2.471h-1.161c.209-.28.404-.623.585-1.03.18-.407.339-.852.474-1.335.136-.486.242-.989.318-1.509.077-.52.115-1.032.115-1.535 0-.67-.067-1.349-.199-2.039-.133-.69-.313-1.33-.539-1.92-.226-.591-.477-1.073-.754-1.446h1.161a8.757 8.757 0 011.225 2.472c.28.893.42 1.87.42 2.933z" fill="#859AB5"/><rect x="476.518" y="145.014" width="27.285" height="27.285" rx="8" fill="#C6D5EA" fill-opacity=".3"/><path d="M490.729 158.088l4.661-4.661m.455 2.273v-2.728h-2.729m-3.524 0h-1.137c-2.842 0-3.979 1.137-3.979 3.979v3.41c0 2.842 1.137 3.979 3.979 3.979h3.411c2.842 0 3.979-1.137 3.979-3.979v-1.137" stroke="#859AB5" stroke-width="1.279" stroke-linecap="round" stroke-linejoin="round"/><g clip-path="url(#clip1_6738_328058)"><path d="M.677 281.376h567.866v85.265c0 7.534-6.108 13.642-13.643 13.642H14.32c-7.535 0-13.643-6.108-13.643-13.642v-85.265z" fill="#fff"/><g filter="url(#filter0_d_6738_328058)"><path fill="#fff" d="M.677 281.376h567.865v6.821H.677z"/></g><path opacity=".4" stroke="#E4EBF3" stroke-width=".853" d="M391.191 321.877h68.212m-347.882 0h68.213"/><path d="M30.62 355.767v-8.682h3.095c.675 0 1.235.123 1.678.369a2.4 2.4 0 01.997 1.009c.22.424.33.901.33 1.433 0 .534-.111 1.014-.335 1.441-.22.424-.553.76-1 1.009-.444.246-1.002.369-1.674.369h-2.128v-1.111h2.009c.427 0 .773-.074 1.038-.221a1.38 1.38 0 00.585-.61c.125-.257.187-.55.187-.877a1.96 1.96 0 00-.187-.874 1.338 1.338 0 00-.589-.597c-.265-.145-.616-.217-1.051-.217H31.93v7.559h-1.31zm10.259.131c-.642 0-1.194-.137-1.658-.411a2.792 2.792 0 01-1.068-1.166c-.249-.503-.373-1.092-.373-1.768 0-.667.124-1.254.373-1.763a2.892 2.892 0 011.051-1.191c.453-.286.981-.428 1.586-.428.367 0 .723.06 1.068.182.345.121.654.312.928.572.274.26.49.598.649 1.013.158.413.237.915.237 1.505v.45h-5.176v-.95h3.934a1.88 1.88 0 00-.203-.886 1.54 1.54 0 00-.572-.615 1.606 1.606 0 00-.857-.224c-.356 0-.667.087-.932.263a1.759 1.759 0 00-.61.678 1.958 1.958 0 00-.213.903v.742c0 .435.077.805.23 1.11.155.305.37.539.648.7.277.158.6.237.97.237.24 0 .46-.034.657-.102.198-.07.37-.175.513-.313a1.37 1.37 0 00.331-.513l1.2.216a2.17 2.17 0 01-.517.928 2.506 2.506 0 01-.929.615c-.37.144-.793.216-1.267.216zm5.467-3.997v3.866h-1.267v-6.512h1.216v1.06h.08a1.86 1.86 0 01.704-.831c.322-.209.728-.313 1.217-.313.444 0 .832.093 1.166.279.333.184.592.458.775.823.184.364.276.815.276 1.352v4.142h-1.267v-3.989c0-.472-.123-.841-.37-1.107-.245-.268-.583-.402-1.012-.402-.294 0-.556.063-.785.19a1.377 1.377 0 00-.538.56c-.13.243-.195.537-.195.882zm8.304 3.993a2.52 2.52 0 01-1.407-.403c-.41-.271-.732-.657-.967-1.157-.231-.503-.347-1.107-.347-1.81 0-.704.117-1.306.352-1.806.237-.5.562-.883.975-1.149a2.53 2.53 0 011.403-.398c.404 0 .729.067.975.203.248.133.44.288.576.466.139.178.246.335.322.471h.077v-3.226h1.267v8.682h-1.238v-1.014h-.106a3.324 3.324 0 01-.33.475 1.842 1.842 0 01-.585.467c-.249.132-.571.199-.967.199zm.28-1.081c.365 0 .673-.096.924-.288.255-.195.447-.465.577-.81.133-.345.199-.746.199-1.204 0-.452-.065-.848-.195-1.187a1.748 1.748 0 00-.572-.793c-.252-.189-.563-.284-.933-.284-.381 0-.7.099-.954.297a1.815 1.815 0 00-.576.81 3.303 3.303 0 00-.191 1.157c0 .435.065.827.195 1.174.13.348.322.623.576.827.258.2.574.301.95.301zm4.755.954v-6.512h1.268v6.512h-1.268zm.64-7.516a.806.806 0 01-.568-.221.714.714 0 01-.233-.534.71.71 0 01.233-.534.797.797 0 01.568-.225c.22 0 .409.075.564.225a.702.702 0 01.237.534.709.709 0 01-.237.534.791.791 0 01-.564.221zm3.6 3.65v3.866h-1.267v-6.512h1.216v1.06h.081a1.86 1.86 0 01.704-.831c.322-.209.727-.313 1.216-.313.444 0 .832.093 1.166.279.333.184.592.458.776.823.183.364.275.815.275 1.352v4.142h-1.267v-3.989c0-.472-.123-.841-.369-1.107-.246-.268-.584-.402-1.013-.402-.294 0-.555.063-.784.19a1.378 1.378 0 00-.539.56c-.13.243-.195.537-.195.882zm8.597 6.443c-.517 0-.962-.068-1.335-.204a2.58 2.58 0 01-.907-.538 2.263 2.263 0 01-.526-.733l1.09-.45c.076.125.177.256.305.395.13.141.305.261.525.36.223.099.51.148.86.148.481 0 .878-.117 1.192-.352.314-.231.47-.601.47-1.11v-1.28h-.08a2.931 2.931 0 01-.33.462 1.805 1.805 0 01-.586.441c-.248.124-.572.186-.97.186a2.71 2.71 0 01-1.39-.36c-.41-.243-.736-.601-.976-1.073-.237-.474-.356-1.058-.356-1.75 0-.693.117-1.286.352-1.781.237-.494.562-.873.975-1.136.413-.266.88-.398 1.403-.398.404 0 .73.067.98.203.248.133.441.288.58.466.141.178.25.335.326.471h.094v-1.056h1.242v6.656c0 .559-.13 1.019-.39 1.377-.26.359-.612.625-1.056.797-.44.173-.938.259-1.492.259zm-.013-3.726c.365 0 .673-.085.924-.255.255-.172.447-.418.577-.737.133-.322.2-.708.2-1.157 0-.438-.066-.824-.196-1.158a1.725 1.725 0 00-.572-.78c-.252-.189-.563-.284-.933-.284-.381 0-.7.099-.954.297a1.792 1.792 0 00-.576.797 3.17 3.17 0 00-.19 1.128c0 .426.064.801.194 1.123.13.322.322.574.577.755.257.18.573.271.95.271zm10.247 1.276a2.52 2.52 0 01-1.407-.403c-.41-.271-.732-.657-.967-1.157-.232-.503-.347-1.107-.347-1.81 0-.704.117-1.306.352-1.806.237-.5.562-.883.975-1.149a2.53 2.53 0 011.403-.398c.404 0 .729.067.975.203.248.133.44.288.576.466a3.9 3.9 0 01.322.471h.076v-3.226h1.268v8.682h-1.238v-1.014h-.106a3.324 3.324 0 01-.33.475 1.842 1.842 0 01-.585.467c-.25.132-.571.199-.967.199zm.28-1.081c.364 0 .672-.096.924-.288.254-.195.447-.465.577-.81.132-.345.199-.746.199-1.204 0-.452-.065-.848-.195-1.187a1.748 1.748 0 00-.572-.793c-.252-.189-.563-.284-.933-.284-.382 0-.7.099-.954.297a1.816 1.816 0 00-.576.81 3.28 3.28 0 00-.191 1.157c0 .435.065.827.195 1.174.13.348.322.623.576.827.258.2.574.301.95.301zm7.561 1.085c-.641 0-1.194-.137-1.657-.411a2.791 2.791 0 01-1.068-1.166c-.25-.503-.373-1.092-.373-1.768 0-.667.124-1.254.373-1.763a2.891 2.891 0 011.05-1.191c.453-.286.981-.428 1.586-.428.368 0 .724.06 1.069.182.344.121.654.312.928.572.274.26.49.598.648 1.013.159.413.238.915.238 1.505v.45h-5.176v-.95h3.934c0-.333-.068-.629-.204-.886a1.54 1.54 0 00-.572-.615 1.606 1.606 0 00-.856-.224c-.356 0-.667.087-.933.263a1.759 1.759 0 00-.61.678 1.958 1.958 0 00-.212.903v.742c0 .435.076.805.229 1.11.155.305.371.539.648.7.277.158.6.237.971.237.24 0 .46-.034.657-.102.198-.07.369-.175.513-.313a1.37 1.37 0 00.33-.513l1.2.216a2.168 2.168 0 01-.517.928 2.505 2.505 0 01-.928.615c-.37.144-.793.216-1.268.216zm4.2 2.31v-8.953h1.238v1.056h.106a3.52 3.52 0 01.318-.471 1.8 1.8 0 01.576-.466c.246-.136.571-.203.975-.203.526 0 .995.132 1.408.398.412.266.736.649.97 1.149.238.5.356 1.102.356 1.806 0 .703-.117 1.307-.351 1.81-.235.5-.557.886-.967 1.157-.41.269-.877.403-1.403.403-.396 0-.72-.067-.97-.199a1.841 1.841 0 01-.586-.467 3.505 3.505 0 01-.326-.475h-.077v3.455h-1.267zm1.242-5.697c0 .458.067.859.2 1.204.132.345.324.615.576.81.251.192.56.288.924.288.379 0 .695-.101.95-.301a1.87 1.87 0 00.576-.827c.133-.347.2-.739.2-1.174 0-.43-.066-.815-.196-1.157a1.774 1.774 0 00-.576-.81c-.255-.198-.572-.297-.954-.297-.367 0-.678.095-.933.284-.251.19-.442.454-.572.793-.13.339-.195.735-.195 1.187zm8.868 3.387c-.61 0-1.143-.14-1.598-.42a2.828 2.828 0 01-1.06-1.174c-.251-.503-.377-1.091-.377-1.763 0-.676.126-1.266.377-1.772a2.83 2.83 0 011.06-1.179c.455-.279.988-.419 1.598-.419.611 0 1.143.14 1.598.419.455.28.809.673 1.06 1.179.252.506.377 1.096.377 1.772 0 .672-.125 1.26-.377 1.763a2.822 2.822 0 01-1.06 1.174c-.455.28-.987.42-1.598.42zm.004-1.064c.396 0 .724-.105.984-.314.26-.209.452-.487.576-.835.128-.347.191-.73.191-1.149a3.29 3.29 0 00-.191-1.144 1.86 1.86 0 00-.576-.844c-.26-.212-.588-.318-.984-.318-.398 0-.729.106-.992.318a1.89 1.89 0 00-.58.844 3.36 3.36 0 00-.187 1.144c0 .419.062.802.187 1.149.127.348.32.626.58.835.263.209.594.314.992.314zm9.325-3.989l-1.149.204a1.372 1.372 0 00-.228-.42 1.14 1.14 0 00-.416-.327 1.514 1.514 0 00-.657-.127c-.359 0-.658.081-.899.242-.24.158-.36.363-.36.615 0 .217.081.392.242.525.161.133.421.242.78.327l1.034.237c.599.139 1.046.352 1.34.64.293.288.44.663.44 1.123 0 .39-.113.738-.339 1.043-.223.303-.535.54-.937.712-.398.173-.86.259-1.386.259-.729 0-1.324-.155-1.784-.466-.461-.314-.744-.759-.848-1.336l1.225-.186c.076.319.233.561.47.725.238.161.547.241.929.241.415 0 .747-.086.996-.258.249-.175.373-.389.373-.64a.663.663 0 00-.229-.513c-.15-.139-.38-.243-.691-.314l-1.102-.242c-.608-.138-1.057-.358-1.348-.661-.288-.302-.432-.685-.432-1.149 0-.384.107-.72.322-1.008.215-.289.511-.513.89-.674a3.246 3.246 0 011.301-.246c.704 0 1.258.152 1.662.457.404.303.671.708.801 1.217zm1.521 4.922v-6.512h1.267v6.512h-1.267zm.64-7.516a.806.806 0 01-.568-.221.716.716 0 01-.233-.534.71.71 0 01.233-.534.797.797 0 01.568-.225c.22 0 .408.075.564.225a.703.703 0 01.237.534.709.709 0 01-.237.534.793.793 0 01-.564.221zm5.372 1.004v1.018h-3.557v-1.018h3.557zm-2.603-1.56h1.268v6.16c0 .246.036.431.11.555a.569.569 0 00.284.25c.119.043.247.064.386.064.101 0 .19-.007.267-.021l.178-.034.229 1.047a2.44 2.44 0 01-.823.135 2.214 2.214 0 01-.932-.178 1.593 1.593 0 01-.7-.576c-.178-.26-.267-.587-.267-.979v-6.423z" fill="#1B2B4B"/><circle cx="76.562" cy="324.008" r="13.642" fill="#1B2B4B"/><g clip-path="url(#clip2_6738_328058)" fill="#fff"><path d="M73.103 324.838a.97.97 0 10-.002-1.942.97.97 0 00.002 1.942zm3.476 0a.97.97 0 10-.001-1.942.97.97 0 000 1.942zm3.475 0a.97.97 0 10-.001-1.942.97.97 0 000 1.942z"/><path d="M76.552 315.482c-4.692 0-8.516 3.829-8.516 8.526 0 4.698 3.824 8.527 8.516 8.527s8.537-3.809 8.537-8.527c0-4.697-3.825-8.526-8.537-8.526zm0 15.888c-4.041 0-7.334-3.296-7.334-7.342 0-4.046 3.293-7.342 7.334-7.342 4.042 0 7.334 3.296 7.334 7.342.02 4.046-3.272 7.342-7.334 7.342z"/></g><circle opacity=".9" cx="215.062" cy="324.008" r="13.642" fill="#C6D5EA"/><path opacity=".8" d="M190.456 349.908h-1.322a2.038 2.038 0 00-.284-.746 2.092 2.092 0 00-.509-.547 2.225 2.225 0 00-.674-.339 2.64 2.64 0 00-.784-.114c-.5 0-.948.126-1.344.377-.393.252-.704.62-.932 1.106-.227.487-.34 1.08-.34 1.781 0 .706.113 1.303.34 1.789.228.486.541.853.936 1.102.396.249.841.373 1.336.373.274 0 .534-.037.78-.11.248-.077.473-.188.674-.335a2.055 2.055 0 00.801-1.276l1.322.004c-.07.427-.207.82-.411 1.179-.2.356-.459.664-.776.924a3.494 3.494 0 01-1.076.597 3.964 3.964 0 01-1.323.212c-.752 0-1.421-.178-2.009-.534-.588-.359-1.051-.872-1.391-1.539-.336-.667-.504-1.462-.504-2.386 0-.927.17-1.723.509-2.387.339-.667.802-1.178 1.39-1.534.588-.359 1.256-.539 2.005-.539.461 0 .89.067 1.289.2.401.13.761.322 1.081.576.319.252.583.56.792.924.21.362.351.776.424 1.242zm4.209 5.99c-.611 0-1.143-.14-1.598-.42a2.822 2.822 0 01-1.06-1.174c-.252-.503-.377-1.091-.377-1.763 0-.676.125-1.266.377-1.772a2.823 2.823 0 011.06-1.179c.455-.279.987-.419 1.598-.419.61 0 1.143.14 1.598.419.455.28.808.673 1.06 1.179.251.506.377 1.096.377 1.772 0 .672-.126 1.26-.377 1.763a2.828 2.828 0 01-1.06 1.174c-.455.28-.988.42-1.598.42zm.004-1.064c.396 0 .723-.105.983-.314.26-.209.453-.487.577-.835.127-.347.191-.73.191-1.149 0-.415-.064-.796-.191-1.144a1.861 1.861 0 00-.577-.844c-.26-.212-.587-.318-.983-.318-.399 0-.729.106-.992.318-.26.212-.454.493-.581.844a3.385 3.385 0 00-.186 1.144c0 .419.062.802.186 1.149.127.348.321.626.581.835.263.209.593.314.992.314zm5.713-2.933v3.866h-1.267v-6.512h1.216v1.06h.081c.15-.345.384-.622.703-.831.323-.209.728-.313 1.217-.313.444 0 .832.093 1.166.279.333.184.592.458.775.823.184.364.276.815.276 1.352v4.142h-1.267v-3.989c0-.472-.123-.841-.369-1.107-.246-.268-.584-.402-1.013-.402-.294 0-.556.063-.785.19a1.378 1.378 0 00-.538.56c-.13.243-.195.537-.195.882zm8.966-2.646v1.018h-3.68v-1.018h3.68zm-2.671 6.512v-7.266c0-.407.089-.745.267-1.013.178-.272.414-.474.708-.606.294-.136.613-.204.958-.204.254 0 .472.021.653.064.181.039.315.076.403.11l-.297 1.026a7.216 7.216 0 00-.229-.06 1.32 1.32 0 00-.339-.038c-.308 0-.529.077-.662.229-.13.153-.195.373-.195.661v7.097h-1.267zm3.978 0v-6.512h1.268v6.512h-1.268zm.64-7.516a.808.808 0 01-.568-.221.716.716 0 01-.233-.534.71.71 0 01.233-.534.799.799 0 01.568-.225c.221 0 .409.075.564.225a.704.704 0 01.238.534.71.71 0 01-.238.534.79.79 0 01-.564.221zm2.333 7.516v-6.512h1.225v1.035h.068c.119-.351.328-.626.627-.827a1.802 1.802 0 011.026-.305c.079 0 .172.003.28.008.11.006.196.013.258.022v1.212a2.246 2.246 0 00-.271-.047 2.694 2.694 0 00-.39-.029c-.299 0-.566.063-.801.19a1.426 1.426 0 00-.755 1.276v3.977h-1.267zm4.581 0v-6.512h1.217v1.06h.08c.136-.359.358-.638.666-.839.308-.204.677-.305 1.106-.305.436 0 .8.101 1.094.305.297.203.516.483.657.839h.068c.155-.347.403-.624.742-.831.339-.209.743-.313 1.212-.313.591 0 1.073.185 1.446.555.375.37.563.928.563 1.674v4.367h-1.267v-4.248c0-.441-.12-.76-.36-.958a1.312 1.312 0 00-.861-.297c-.413 0-.733.128-.962.382-.229.251-.344.575-.344.971v4.15h-1.263v-4.328c0-.354-.11-.638-.33-.852-.221-.215-.508-.323-.861-.323-.24 0-.462.064-.665.191a1.394 1.394 0 00-.488.521 1.606 1.606 0 00-.182.776v4.015h-1.268zm10.55 0v-6.512h1.268v6.512h-1.268zm.64-7.516a.808.808 0 01-.568-.221.716.716 0 01-.233-.534.71.71 0 01.233-.534.799.799 0 01.568-.225c.221 0 .409.075.564.225a.703.703 0 01.237.534.709.709 0 01-.237.534.79.79 0 01-.564.221zm3.6 3.65v3.866h-1.267v-6.512h1.216v1.06h.081c.15-.345.384-.622.704-.831.322-.209.727-.313 1.216-.313.444 0 .832.093 1.166.279.333.184.592.458.776.823.183.364.275.815.275 1.352v4.142h-1.267v-3.989c0-.472-.123-.841-.369-1.107-.246-.268-.584-.402-1.013-.402-.294 0-.555.063-.784.19a1.38 1.38 0 00-.539.56c-.13.243-.195.537-.195.882zm8.597 6.443c-.517 0-.962-.068-1.335-.204a2.576 2.576 0 01-.907-.538 2.26 2.26 0 01-.526-.733l1.089-.45c.077.125.178.256.306.395.13.141.305.261.525.36.223.099.51.148.861.148.48 0 .877-.117 1.191-.352.314-.231.47-.601.47-1.11v-1.28h-.08a2.923 2.923 0 01-.331.462 1.799 1.799 0 01-.585.441c-.248.124-.572.186-.97.186-.515 0-.978-.12-1.391-.36-.41-.243-.735-.601-.975-1.073-.237-.474-.356-1.058-.356-1.75 0-.693.117-1.286.352-1.781.237-.494.562-.873.975-1.136a2.53 2.53 0 011.403-.398c.404 0 .731.067.979.203.249.133.442.288.581.466.141.178.25.335.326.471h.094v-1.056h1.242v6.656c0 .559-.13 1.019-.39 1.377-.26.359-.612.625-1.056.797a4.057 4.057 0 01-1.492.259zm-.013-3.726c.365 0 .673-.085.924-.255.255-.172.447-.418.577-.737.133-.322.199-.708.199-1.157 0-.438-.065-.824-.195-1.158a1.728 1.728 0 00-.572-.78c-.252-.189-.562-.284-.933-.284-.381 0-.699.099-.953.297a1.787 1.787 0 00-.577.797 3.17 3.17 0 00-.191 1.128c0 .426.065.801.195 1.123.13.322.322.574.577.755.257.18.573.271.949.271z" fill="#859AB5"/><path d="M213.348 319.93a.492.492 0 00.359.081.466.466 0 00.312-.196l1.758-2.487-.33-.234a.493.493 0 00-.196-.138l-1.961-1.386a.472.472 0 00-.534-.014.472.472 0 00-.15.663c.033.053.077.1.129.136l1.008.713a7.69 7.69 0 00-6.325 8.248 7.693 7.693 0 007.665 7.021.48.48 0 00.34-.821.484.484 0 00-.34-.141 6.73 6.73 0 01-.943-13.397l-.907 1.282a.48.48 0 00.115.67zm5.828 10.035a6.73 6.73 0 01-2.114 1.092.473.473 0 00-.34.457.473.473 0 00.481.484.434.434 0 00.129-.02v.002l.012-.003a7.604 7.604 0 002.417-1.249.48.48 0 00.09-.675.49.49 0 00-.675-.088zm2.565-6.346a.487.487 0 00.547.404.486.486 0 00.404-.545 7.644 7.644 0 00-.872-2.58.486.486 0 00-.543-.232.49.49 0 00-.36.47c.001.08.022.159.061.229a6.67 6.67 0 01.763 2.254zm-3.98-6.215a.5.5 0 00-.168-.031.49.49 0 00-.45.314.484.484 0 00.283.618 6.736 6.736 0 012.04 1.203l.003.002c.001.003.005.005.006.006l.003.002a.47.47 0 00.311.115.489.489 0 00.364-.166.472.472 0 00.117-.314.494.494 0 00-.043-.201.491.491 0 00-.123-.163 7.647 7.647 0 00-2.343-1.385zm4.482 8.223a.49.49 0 00-.569.372 6.679 6.679 0 01-.892 2.206.467.467 0 00-.073.26.475.475 0 00.347.459.486.486 0 00.539-.205 7.618 7.618 0 001.021-2.524.483.483 0 00-.373-.568z" fill="#fff"/><circle opacity=".9" cx="353.673" cy="324.008" r="13.642" fill="#C6D5EA"/><path opacity=".8" d="M320.521 355.767v-8.682h5.443v1.128h-4.133v2.645h3.849v1.123h-3.849v2.658h4.184v1.128h-5.494zm8.091-6.512l1.437 2.535 1.45-2.535h1.386l-2.03 3.256 2.047 3.256h-1.386l-1.467-2.434-1.462 2.434h-1.39l2.026-3.256-2.001-3.256h1.39zm8.061 6.643c-.63 0-1.173-.143-1.628-.428a2.833 2.833 0 01-1.043-1.191c-.243-.506-.364-1.085-.364-1.738 0-.662.124-1.245.373-1.751a2.855 2.855 0 011.051-1.191c.452-.286.985-.428 1.598-.428.495 0 .936.092 1.323.275.387.181.699.435.937.763.24.328.383.711.428 1.149h-1.234a1.477 1.477 0 00-.466-.788c-.24-.221-.562-.331-.967-.331-.353 0-.662.093-.928.28a1.792 1.792 0 00-.615.788c-.147.339-.22.741-.22 1.204 0 .475.072.885.216 1.229.144.345.348.612.611.802.265.189.578.284.936.284.241 0 .458-.044.653-.132.198-.09.363-.219.496-.386.136-.166.231-.367.284-.602h1.234a2.403 2.403 0 01-.411 1.128 2.364 2.364 0 01-.92.78c-.382.189-.83.284-1.344.284zm5.298-3.997v3.866h-1.268v-8.682h1.251v3.23h.08c.153-.35.386-.629.7-.835.313-.206.723-.309 1.229-.309.447 0 .837.092 1.17.275.336.184.596.458.78.823.186.361.28.813.28 1.356v4.142h-1.268v-3.989c0-.478-.123-.848-.369-1.111-.245-.266-.587-.398-1.025-.398-.3 0-.568.063-.806.19a1.386 1.386 0 00-.555.56c-.133.243-.199.537-.199.882zm7.808 4.01c-.413 0-.786-.077-1.119-.229a1.886 1.886 0 01-.793-.674c-.192-.294-.288-.654-.288-1.081 0-.368.071-.67.212-.907.141-.238.332-.426.572-.564.24-.139.509-.243.806-.314.296-.07.599-.124.907-.161l.949-.11c.243-.031.42-.081.53-.148.11-.068.165-.178.165-.331v-.03c0-.37-.104-.657-.313-.86-.207-.204-.515-.305-.924-.305-.427 0-.763.094-1.009.284a1.523 1.523 0 00-.505.623l-1.191-.272c.141-.395.348-.715.619-.958.274-.246.589-.424.945-.534a3.694 3.694 0 011.124-.169c.26 0 .535.031.826.093.294.059.568.169.823.331.257.161.467.391.631.691.164.296.246.682.246 1.157v4.324h-1.238v-.891h-.051a1.79 1.79 0 01-.368.484 1.976 1.976 0 01-.632.394 2.46 2.46 0 01-.924.157zm.275-1.018c.351 0 .65-.069.899-.207.252-.139.442-.32.572-.543.133-.226.2-.468.2-.725v-.839a.677.677 0 01-.263.127 4.193 4.193 0 01-.437.098l-.479.072-.39.05c-.246.032-.47.084-.674.157-.2.074-.362.18-.483.318-.119.136-.178.317-.178.543 0 .314.116.551.348.712.231.158.527.237.885.237zm5.894-2.992v3.866h-1.268v-6.512h1.217v1.06h.08c.15-.345.385-.622.704-.831.322-.209.728-.313 1.217-.313.443 0 .832.093 1.165.279.334.184.593.458.776.823.184.364.276.815.276 1.352v4.142h-1.268v-3.989c0-.472-.123-.841-.369-1.107-.245-.268-.583-.402-1.013-.402-.294 0-.555.063-.784.19a1.378 1.378 0 00-.538.56c-.13.243-.195.537-.195.882zm8.597 6.443c-.518 0-.963-.068-1.336-.204a2.585 2.585 0 01-.907-.538 2.275 2.275 0 01-.526-.733l1.09-.45c.076.125.178.256.305.395.13.141.305.261.526.36.223.099.51.148.86.148.481 0 .878-.117 1.191-.352.314-.231.471-.601.471-1.11v-1.28h-.081a2.91 2.91 0 01-.33.462 1.82 1.82 0 01-.585.441c-.249.124-.572.186-.971.186-.514 0-.978-.12-1.39-.36-.41-.243-.735-.601-.975-1.073-.238-.474-.356-1.058-.356-1.75 0-.693.117-1.286.351-1.781.238-.494.563-.873.975-1.136a2.536 2.536 0 011.404-.398c.404 0 .73.067.979.203.248.133.442.288.58.466.142.178.251.335.327.471h.093v-1.056h1.242v6.656c0 .559-.13 1.019-.39 1.377-.26.359-.612.625-1.055.797a4.06 4.06 0 01-1.492.259zm-.013-3.726c.364 0 .672-.085.924-.255.254-.172.446-.418.576-.737.133-.322.2-.708.2-1.157 0-.438-.065-.824-.195-1.158a1.723 1.723 0 00-.573-.78c-.251-.189-.562-.284-.932-.284-.382 0-.7.099-.954.297a1.793 1.793 0 00-.576.797 3.148 3.148 0 00-.191 1.128c0 .426.065.801.195 1.123.13.322.322.574.576.755.257.18.574.271.95.271zm4.65 1.149v-6.512h1.268v6.512h-1.268zm.64-7.516a.806.806 0 01-.568-.221.716.716 0 01-.233-.534.71.71 0 01.233-.534.797.797 0 01.568-.225c.221 0 .409.075.564.225a.703.703 0 01.237.534.709.709 0 01-.237.534.79.79 0 01-.564.221zm3.6 3.65v3.866h-1.267v-6.512h1.216v1.06h.081c.15-.345.384-.622.703-.831.323-.209.728-.313 1.217-.313.444 0 .832.093 1.166.279.333.184.592.458.776.823.183.364.275.815.275 1.352v4.142h-1.267v-3.989c0-.472-.123-.841-.369-1.107-.246-.268-.584-.402-1.013-.402-.294 0-.556.063-.785.19a1.378 1.378 0 00-.538.56c-.13.243-.195.537-.195.882zm8.597 6.443c-.517 0-.962-.068-1.335-.204a2.58 2.58 0 01-.908-.538 2.272 2.272 0 01-.525-.733l1.089-.45c.077.125.178.256.305.395.13.141.306.261.526.36.223.099.51.148.861.148.48 0 .877-.117 1.191-.352.313-.231.47-.601.47-1.11v-1.28h-.08a2.99 2.99 0 01-.331.462 1.799 1.799 0 01-.585.441c-.249.124-.572.186-.971.186-.514 0-.977-.12-1.39-.36-.41-.243-.735-.601-.975-1.073-.237-.474-.356-1.058-.356-1.75 0-.693.117-1.286.352-1.781.237-.494.562-.873.975-1.136a2.53 2.53 0 011.403-.398c.404 0 .73.067.979.203.249.133.442.288.581.466.141.178.25.335.326.471h.094v-1.056h1.242v6.656c0 .559-.13 1.019-.39 1.377-.26.359-.612.625-1.056.797a4.057 4.057 0 01-1.492.259zm-.013-3.726c.365 0 .673-.085.924-.255.255-.172.447-.418.577-.737.133-.322.199-.708.199-1.157 0-.438-.065-.824-.195-1.158a1.728 1.728 0 00-.572-.78c-.252-.189-.563-.284-.933-.284-.381 0-.699.099-.954.297a1.793 1.793 0 00-.576.797 3.17 3.17 0 00-.191 1.128c0 .426.065.801.195 1.123.13.322.322.574.577.755.257.18.573.271.949.271z" fill="#859AB5"/><path d="M359.477 320.184a.504.504 0 000-.744l-2.215-2.098a.57.57 0 00-.606-.115.57.57 0 00-.181.115.506.506 0 000 .744l1.274 1.201h-5.312a3.988 3.988 0 00-2.741 1.076 3.57 3.57 0 00-1.136 2.596.51.51 0 00.162.371.573.573 0 00.783 0 .51.51 0 00.163-.371c0-.344.071-.685.21-1.004.14-.318.344-.607.601-.85.257-.244.562-.437.898-.569a2.9 2.9 0 011.06-.2h5.312l-1.274 1.202a.509.509 0 00-.121.574.543.543 0 00.301.285.576.576 0 00.607-.115l2.215-2.098zm-8.541 5.55a.574.574 0 01.787 0 .511.511 0 01.163.372c0 .14-.059.274-.163.372l-1.274 1.202h5.312a2.85 2.85 0 001.958-.769 2.552 2.552 0 00.811-1.854c0-.139.058-.272.162-.371a.572.572 0 01.392-.153c.147 0 .288.055.392.153a.512.512 0 01.162.371c0 .974-.409 1.908-1.136 2.596a3.988 3.988 0 01-2.741 1.076h-5.312l1.274 1.201a.509.509 0 010 .745.572.572 0 01-.787 0l-2.216-2.099a.504.504 0 010-.744l2.216-2.098z" fill="#fff"/><circle opacity=".9" cx="494.363" cy="324.008" r="13.642" fill="#C6D5EA"/><path d="M499.321 319.008a.466.466 0 00-.47-.086l-11.864 4.394a.468.468 0 00-.219.697.478.478 0 00.215.172l5.191 2.012 2.011 5.19a.468.468 0 00.869-.003l4.394-11.865a.462.462 0 00-.127-.511zm-1.095 1.136l-3.618 9.764-1.641-4.237a.474.474 0 00-.268-.267l-4.236-1.641 9.763-3.619z" fill="#fff"/><path opacity=".8" d="M476.177 349.366a1.241 1.241 0 00-.56-.933c-.328-.223-.74-.335-1.238-.335-.356 0-.664.057-.924.17a1.42 1.42 0 00-.606.458 1.082 1.082 0 00-.212.657.97.97 0 00.144.534c.099.15.228.275.386.377.161.099.333.182.517.25a5.7 5.7 0 00.53.161l.848.221c.277.067.561.159.852.275.291.116.561.269.809.458.249.189.45.424.602.704.156.279.233.614.233 1.004 0 .492-.127.929-.381 1.31-.252.382-.618.683-1.098.903-.478.221-1.055.331-1.734.331-.65 0-1.212-.103-1.687-.31a2.602 2.602 0 01-1.115-.877c-.268-.382-.417-.834-.445-1.357h1.314c.026.314.127.575.306.785.18.206.411.36.69.462.283.098.593.148.929.148.37 0 .699-.058.988-.174.291-.119.52-.282.686-.492.167-.212.25-.459.25-.741 0-.258-.073-.468-.22-.632a1.627 1.627 0 00-.589-.407 5.853 5.853 0 00-.835-.284l-1.026-.28c-.695-.189-1.247-.467-1.653-.835-.405-.367-.607-.853-.607-1.458 0-.5.136-.937.407-1.31a2.678 2.678 0 011.102-.869 3.78 3.78 0 011.569-.314c.588 0 1.106.104 1.556.31.452.206.808.49 1.068.852.26.359.395.771.407 1.238h-1.263zm5.651 6.532c-.641 0-1.194-.137-1.657-.411a2.785 2.785 0 01-1.068-1.166c-.249-.503-.373-1.092-.373-1.768 0-.667.124-1.254.373-1.763a2.89 2.89 0 011.051-1.191c.452-.286.98-.428 1.585-.428.368 0 .724.06 1.068.182.345.121.655.312.929.572.274.26.49.598.648 1.013.159.413.238.915.238 1.505v.45h-5.176v-.95h3.934c0-.333-.068-.629-.204-.886a1.535 1.535 0 00-.572-.615 1.604 1.604 0 00-.856-.224c-.356 0-.667.087-.933.263a1.755 1.755 0 00-.61.678 1.95 1.95 0 00-.212.903v.742c0 .435.076.805.229 1.11.155.305.371.539.648.7.277.158.601.237.971.237.24 0 .459-.034.657-.102.198-.07.369-.175.513-.313.144-.139.254-.31.331-.513l1.199.216a2.164 2.164 0 01-.517.928 2.505 2.505 0 01-.928.615c-.37.144-.793.216-1.268.216zm5.468-3.997v3.866h-1.268v-6.512h1.217v1.06h.08c.15-.345.385-.622.704-.831.322-.209.728-.313 1.216-.313.444 0 .833.093 1.166.279.334.184.592.458.776.823.184.364.276.815.276 1.352v4.142h-1.268v-3.989c0-.472-.123-.841-.369-1.107-.246-.268-.583-.402-1.013-.402-.294 0-.555.063-.784.19a1.372 1.372 0 00-.538.56c-.13.243-.195.537-.195.882zm8.304 3.993c-.526 0-.995-.134-1.408-.403-.409-.271-.731-.657-.966-1.157-.232-.503-.348-1.107-.348-1.81 0-.704.118-1.306.352-1.806.238-.5.563-.883.975-1.149.413-.266.88-.398 1.403-.398.404 0 .729.067.975.203.249.133.441.288.577.466.138.178.246.335.322.471h.076v-3.226h1.268v8.682h-1.238v-1.014h-.106a3.314 3.314 0 01-.331.475 1.835 1.835 0 01-.585.467c-.248.132-.571.199-.966.199zm.28-1.081c.364 0 .672-.096.924-.288.254-.195.446-.465.576-.81.133-.345.199-.746.199-1.204 0-.452-.065-.848-.195-1.187a1.745 1.745 0 00-.572-.793c-.251-.189-.562-.284-.932-.284-.382 0-.7.099-.954.297a1.811 1.811 0 00-.577.81c-.127.342-.19.727-.19 1.157 0 .435.065.827.195 1.174.13.348.322.623.576.827.257.2.574.301.95.301zm4.755.954v-6.512h1.267v6.512h-1.267zm.64-7.516a.805.805 0 01-.568-.221.712.712 0 01-.233-.534c0-.209.077-.387.233-.534a.795.795 0 01.568-.225c.22 0 .408.075.564.225a.703.703 0 01.237.534.709.709 0 01-.237.534.793.793 0 01-.564.221zm3.6 3.65v3.866h-1.268v-6.512h1.217v1.06h.08c.15-.345.385-.622.704-.831.322-.209.728-.313 1.217-.313.443 0 .832.093 1.165.279.334.184.593.458.776.823.184.364.276.815.276 1.352v4.142h-1.268v-3.989c0-.472-.123-.841-.368-1.107-.246-.268-.584-.402-1.014-.402-.294 0-.555.063-.784.19a1.378 1.378 0 00-.538.56c-.13.243-.195.537-.195.882zm8.597 6.443c-.518 0-.963-.068-1.336-.204a2.585 2.585 0 01-.907-.538 2.275 2.275 0 01-.526-.733l1.09-.45c.076.125.178.256.305.395.13.141.305.261.526.36.223.099.51.148.86.148.481 0 .878-.117 1.191-.352.314-.231.471-.601.471-1.11v-1.28h-.081a2.91 2.91 0 01-.33.462 1.82 1.82 0 01-.585.441c-.249.124-.572.186-.971.186-.514 0-.978-.12-1.39-.36-.41-.243-.735-.601-.975-1.073-.238-.474-.356-1.058-.356-1.75 0-.693.117-1.286.351-1.781.238-.494.563-.873.975-1.136a2.536 2.536 0 011.404-.398c.404 0 .73.067.979.203.248.133.442.288.581.466.141.178.25.335.326.471h.093v-1.056h1.242v6.656c0 .559-.13 1.019-.39 1.377-.26.359-.612.625-1.055.797a4.06 4.06 0 01-1.492.259zm-.013-3.726c.364 0 .672-.085.924-.255.254-.172.446-.418.576-.737.133-.322.2-.708.2-1.157 0-.438-.065-.824-.195-1.158a1.723 1.723 0 00-.573-.78c-.251-.189-.562-.284-.932-.284-.382 0-.7.099-.954.297a1.793 1.793 0 00-.576.797 3.148 3.148 0 00-.191 1.128c0 .426.065.801.195 1.123.13.322.322.574.576.755.257.18.574.271.95.271z" fill="#859AB5"/><path opacity=".4" stroke="#E4EBF3" stroke-width=".853" d="M251.357 321.877h68.212"/></g><defs><clipPath id="clip0_6738_328058"><path fill="#fff" transform="translate(155.859 97.203)" d="M0 0h23.874v23.874H0z"/></clipPath><clipPath id="clip1_6738_328058"><path fill="#fff" transform="translate(1 287.775)" d="M0 0h568v92.508H0z"/></clipPath><clipPath id="clip2_6738_328058"><path fill="#fff" transform="translate(68.036 313.777)" d="M0 0h17.053v20.464H0z"/></clipPath><filter id="filter0_d_6738_328058" x="-7.849" y="276.26" width="584.918" height="23.874" filterUnits="userSpaceOnUse" color-interpolation-filters="sRGB"><feFlood flood-opacity="0" result="BackgroundImageFix"/><feColorMatrix in="SourceAlpha" values="0 0 0 0 0 0 0 0 0 0 0 0 0 0 0 0 0 0 127 0" result="hardAlpha"/><feOffset dy="3.411"/><feGaussianBlur stdDeviation="4.263"/><feColorMatrix values="0 0 0 0 0 0 0 0 0 0 0 0 0 0 0 0 0 0 0.03 0"/><feBlend in2="BackgroundImageFix" result="effect1_dropShadow_6738_328058"/><feBlend in="SourceGraphic" in2="effect1_dropShadow_6738_328058" result="shape"/></filter></defs></svg>